<?xml version="1.0" encoding="UTF-8" standalone="no"?>
<svg
   version="1.1"
   viewBox="0 0 794.14832 349.48163"
   fill="none"
   stroke="none"
   stroke-linecap="square"
   stroke-miterlimit="10"
   id="svg107"
   sodipodi:docname="vtkhdf-image-data.svg"
   width="794.14832"
   height="349.48163"
   inkscape:version="1.1.1 (3bf5ae0d25, 2021-09-20)"
   xmlns:inkscape="http://www.inkscape.org/namespaces/inkscape"
   xmlns:sodipodi="http://sodipodi.sourceforge.net/DTD/sodipodi-0.dtd"
   xmlns="http://www.w3.org/2000/svg"
   xmlns:svg="http://www.w3.org/2000/svg">
  <defs
     id="defs111" />
  <sodipodi:namedview
     id="namedview109"
     pagecolor="#ffffff"
     bordercolor="#666666"
     borderopacity="1.0"
     inkscape:pageshadow="2"
     inkscape:pageopacity="0.0"
     inkscape:pagecheckerboard="0"
     showgrid="false"
     inkscape:zoom="0.93619792"
     inkscape:cx="370.11405"
     inkscape:cy="259.5605"
     inkscape:window-width="1920"
     inkscape:window-height="1172"
     inkscape:window-x="-8"
     inkscape:window-y="-8"
     inkscape:window-maximized="1"
     inkscape:current-layer="g105"
     lock-margins="false"
     fit-margin-top="0"
     fit-margin-left="0"
     fit-margin-right="0"
     fit-margin-bottom="0"
     showguides="false" />
  <clipPath
     id="p.0">
    <path
       d="M 0,0 H 1024 V 768 H 0 Z"
       clip-rule="nonzero"
       id="path2" />
  </clipPath>
  <g
     clip-path="url(#p.0)"
     id="g105"
     transform="translate(-97.43438,-196.47113)">
    <path
       fill="#000000"
       fill-opacity="0"
       d="M 0,0 H 1024 V 768 H 0 Z"
       fill-rule="evenodd"
       id="path5" />
    <path
       fill="#cfe2f3"
       d="m 388.31235,211.45961 v 0 c 0,-8.00177 6.48669,-14.48848 14.48846,-14.48848 h 255.96793 c 3.84259,0 7.52777,1.52646 10.24488,4.24358 2.71716,2.71711 4.24359,6.40231 4.24359,10.2449 v 57.95216 c 0,8.00177 -6.4867,14.4885 -14.48847,14.4885 H 402.80081 c -8.00177,0 -14.48846,-6.48673 -14.48846,-14.4885 z"
       fill-rule="evenodd"
       id="path7" />
    <path
       stroke="#000000"
       stroke-width="1"
       stroke-linejoin="round"
       stroke-linecap="butt"
       d="m 388.31235,211.45961 v 0 c 0,-8.00177 6.48669,-14.48848 14.48846,-14.48848 h 255.96793 c 3.84259,0 7.52777,1.52646 10.24488,4.24358 2.71716,2.71711 4.24359,6.40231 4.24359,10.2449 v 57.95216 c 0,8.00177 -6.4867,14.4885 -14.48847,14.4885 H 402.80081 c -8.00177,0 -14.48846,-6.48673 -14.48846,-14.4885 z"
       fill-rule="evenodd"
       id="path9" />
    <path
       fill="#000000"
       d="m 497.7232,225.3557 -4.78125,-13.35937 h 2.9375 l 3.375,9.89062 3.26563,-9.89062 h 2.85937 l -4.78125,13.35937 z m 12.03732,0 v -11.09375 h -3.95312 v -2.26562 h 10.6094 v 2.26562 h -3.95312 v 11.09375 z m 8.42722,0 v -13.35937 h 2.70312 v 5.9375 l 5.4375,-5.9375 h 3.625 l -5.01562,5.20312 5.29687,8.15625 h -3.48437 l -3.67188,-6.26562 -2.1875,2.23437 v 4.03125 z m 13.44171,0 v -13.35937 h 2.70313 v 5.26562 h 5.28125 v -5.26562 h 2.70312 v 13.35937 h -2.70312 v -5.84375 h -5.28125 v 5.84375 z m 13.45734,-13.35937 h 4.9375 q 1.65625,0 2.53125,0.26562 1.1875,0.34375 2.01562,1.23438 0.84375,0.875 1.28125,2.15625 0.4375,1.28125 0.4375,3.15625 0,1.64062 -0.40625,2.84375 -0.5,1.45312 -1.4375,2.35937 -0.70312,0.67188 -1.89062,1.0625 -0.89063,0.28125 -2.39063,0.28125 h -5.07812 z m 2.70312,2.26562 v 8.84375 h 2.01563 q 1.125,0 1.625,-0.125 0.65625,-0.17187 1.07812,-0.5625 0.4375,-0.39062 0.70313,-1.28125 0.28125,-0.90625 0.28125,-2.45312 0,-1.54688 -0.28125,-2.375 -0.26563,-0.82813 -0.76563,-1.28125 -0.48437,-0.46875 -1.23437,-0.64063 -0.5625,-0.125 -2.21875,-0.125 z M 558.591,225.3557 v -13.35937 h 9.15625 v 2.26562 h -6.45313 v 3.15625 h 5.5625 v 2.26563 h -5.5625 v 5.67187 z"
       fill-rule="nonzero"
       id="path11" />
    <path
       fill="#000000"
       d="m 414.19556,247.3557 -5.17187,-13.35937 h 1.92187 l 3.46875,9.70312 q 0.42188,1.17188 0.70313,2.1875 0.3125,-1.09375 0.71875,-2.1875 l 3.60937,-9.70312 h 1.79688 l -5.23438,13.35937 z m 14.02298,-3.10937 1.6875,0.20312 q -0.40625,1.48438 -1.48437,2.3125 -1.07813,0.8125 -2.76563,0.8125 -2.125,0 -3.375,-1.29687 -1.23437,-1.3125 -1.23437,-3.67188 0,-2.45312 1.25,-3.79687 1.26562,-1.34375 3.26562,-1.34375 1.9375,0 3.15625,1.32812 1.23438,1.3125 1.23438,3.70313 0,0.15625 0,0.4375 h -7.21875 q 0.0938,1.59375 0.90625,2.45312 0.8125,0.84375 2.01562,0.84375 0.90625,0 1.54688,-0.46875 0.64062,-0.48437 1.01562,-1.51562 z m -5.39062,-2.65625 h 5.40625 q -0.10938,-1.21875 -0.625,-1.82813 -0.78125,-0.95312 -2.03125,-0.95312 -1.125,0 -1.90625,0.76562 -0.76563,0.75 -0.84375,2.01563 z m 9.12573,5.76562 v -9.67187 h 1.46875 v 1.46875 q 0.5625,-1.03125 1.03125,-1.35938 0.48437,-0.32812 1.0625,-0.32812 0.82812,0 1.6875,0.53125 l -0.5625,1.51562 q -0.60938,-0.35937 -1.20313,-0.35937 -0.54687,0 -0.96875,0.32812 -0.42187,0.32813 -0.60937,0.89063 -0.28125,0.875 -0.28125,1.92187 v 5.0625 z m 5.57205,-2.89062 1.625,-0.25 q 0.125,0.96875 0.75,1.5 0.625,0.51562 1.75,0.51562 1.125,0 1.67187,-0.45312 0.54688,-0.46875 0.54688,-1.09375 0,-0.54688 -0.48438,-0.875 -0.32812,-0.21875 -1.67187,-0.54688 -1.8125,-0.46875 -2.51563,-0.79687 -0.6875,-0.32813 -1.04687,-0.90625 -0.35938,-0.59375 -0.35938,-1.3125 0,-0.64063 0.29688,-1.1875 0.29687,-0.5625 0.8125,-0.92188 0.375,-0.28125 1.03125,-0.46875 0.67187,-0.20312 1.42187,-0.20312 1.14063,0 2,0.32812 0.85938,0.32813 1.26563,0.89063 0.42187,0.5625 0.57812,1.5 l -1.60937,0.21875 q -0.10938,-0.75 -0.64063,-1.17188 -0.51562,-0.42187 -1.46875,-0.42187 -1.14062,0 -1.625,0.375 -0.46875,0.375 -0.46875,0.875 0,0.3125 0.1875,0.57812 0.20313,0.26563 0.64063,0.4375 0.23437,0.0938 1.4375,0.42188 1.75,0.45312 2.4375,0.75 0.6875,0.29687 1.07812,0.85937 0.39063,0.5625 0.39063,1.40625 0,0.82813 -0.48438,1.54688 -0.46875,0.71875 -1.375,1.125 -0.90625,0.39062 -2.04687,0.39062 -1.875,0 -2.875,-0.78125 -0.98438,-0.78125 -1.25,-2.32812 z m 9.98437,-8.57813 v -1.89062 h 1.64063 v 1.89062 z m 0,11.46875 v -9.67187 h 1.64063 v 9.67187 z m 3.53544,-4.84375 q 0,-2.6875 1.48437,-3.96875 1.25,-1.07812 3.04688,-1.07812 2,0 3.26562,1.3125 1.26563,1.29687 1.26563,3.60937 0,1.85938 -0.5625,2.9375 -0.5625,1.0625 -1.64063,1.65625 -1.0625,0.59375 -2.32812,0.59375 -2.03125,0 -3.28125,-1.29687 -1.25,-1.3125 -1.25,-3.76563 z m 1.6875,0 q 0,1.85938 0.79687,2.79688 0.8125,0.92187 2.04688,0.92187 1.21875,0 2.03125,-0.92187 0.8125,-0.9375 0.8125,-2.84375 0,-1.79688 -0.8125,-2.71875 -0.8125,-0.92188 -2.03125,-0.92188 -1.23438,0 -2.04688,0.92188 -0.79687,0.90625 -0.79687,2.76562 z m 9.2976,4.84375 v -9.67187 h 1.46875 v 1.375 q 1.0625,-1.59375 3.07813,-1.59375 0.875,0 1.60937,0.3125 0.73438,0.3125 1.09375,0.82812 0.375,0.5 0.51563,1.20313 0.0938,0.45312 0.0938,1.59375 v 5.95312 h -1.64063 v -5.89062 q 0,-1 -0.20312,-1.48438 -0.1875,-0.5 -0.67188,-0.79687 -0.48437,-0.29688 -1.14062,-0.29688 -1.04688,0 -1.8125,0.67188 -0.75,0.65625 -0.75,2.51562 v 5.28125 z m 10.79758,0 v -1.875 h 1.875 v 1.875 q 0,1.03125 -0.375,1.65625 -0.35938,0.64063 -1.15625,0.98438 l -0.45313,-0.70313 q 0.51563,-0.21875 0.76563,-0.67187 0.25,-0.4375 0.28125,-1.26563 z m 12.47598,0 -3.53125,-13.35937 h 1.8125 l 2.03125,8.76562 q 0.32813,1.375 0.5625,2.71875 0.5,-2.14062 0.59375,-2.46875 l 2.54688,-9.01562 h 2.125 l 1.92187,6.76562 q 0.71875,2.51563 1.03125,4.71875 0.26563,-1.26562 0.67188,-2.89062 l 2.09375,-8.59375 h 1.78125 l -3.67188,13.35937 h -1.70312 l -2.8125,-10.17187 q -0.35938,-1.28125 -0.42188,-1.5625 -0.20312,0.90625 -0.39062,1.5625 l -2.82813,10.17187 z m 15.07743,0 v -13.35937 h 1.64062 v 4.79687 q 1.14063,-1.32812 2.89063,-1.32812 1.07812,0 1.85937,0.42187 0.79688,0.42188 1.14063,1.17188 0.34375,0.75 0.34375,2.17187 v 6.125 h -1.64063 v -6.125 q 0,-1.23437 -0.53125,-1.79687 -0.53125,-0.5625 -1.51562,-0.5625 -0.71875,0 -1.35938,0.39062 -0.64062,0.375 -0.92187,1.01563 -0.26563,0.64062 -0.26563,1.78125 v 5.29687 z m 9.76632,-4.84375 q 0,-2.6875 1.48438,-3.96875 1.25003,-1.07812 3.0469,-1.07812 2,0 3.26563,1.3125 1.26562,1.29687 1.26562,3.60937 0,1.85938 -0.5625,2.9375 -0.5625,1.0625 -1.64062,1.65625 -1.0625,0.59375 -2.32813,0.59375 -2.03125,0 -3.28128,-1.29687 -1.25,-1.3125 -1.25,-3.76563 z m 1.6875,0 q 0,1.85938 0.79691,2.79688 0.8125,0.92187 2.04687,0.92187 1.21875,0 2.03125,-0.92187 0.8125,-0.9375 0.8125,-2.84375 0,-1.79688 -0.8125,-2.71875 -0.8125,-0.92188 -2.03125,-0.92188 -1.23437,0 -2.04687,0.92188 -0.79691,0.90625 -0.79691,2.76562 z m 9.2507,4.84375 v -13.35937 h 1.64063 v 13.35937 z m 10.81672,-3.10937 1.6875,0.20312 q -0.40625,1.48438 -1.48438,2.3125 -1.07812,0.8125 -2.76562,0.8125 -2.125,0 -3.375,-1.29687 -1.23438,-1.3125 -1.23438,-3.67188 0,-2.45312 1.25,-3.79687 1.26563,-1.34375 3.26563,-1.34375 1.9375,0 3.15625,1.32812 1.23437,1.3125 1.23437,3.70313 0,0.15625 0,0.4375 h -7.21875 q 0.0938,1.59375 0.90625,2.45312 0.8125,0.84375 2.01563,0.84375 0.90625,0 1.54687,-0.46875 0.64063,-0.48437 1.01563,-1.51562 z m -5.39063,-2.65625 h 5.40625 q -0.10937,-1.21875 -0.625,-1.82813 -0.78125,-0.95312 -2.03125,-0.95312 -1.125,0 -1.90625,0.76562 -0.76562,0.75 -0.84375,2.01563 z m 9.37573,5.76562 v -13.35937 h 9.65625 v 1.57812 h -7.875 v 4.09375 h 7.375 v 1.5625 h -7.375 v 4.54688 h 8.1875 v 1.57812 z m 11.11542,0 3.53125,-5.03125 -3.26563,-4.64062 h 2.04688 l 1.48437,2.26562 q 0.42188,0.64063 0.67188,1.07813 0.40625,-0.59375 0.73437,-1.0625 l 1.64063,-2.28125 h 1.95312 l -3.34375,4.54687 3.59375,5.125 h -2.01562 l -1.98438,-3 -0.51562,-0.8125 -2.54688,3.8125 z m 14,-1.46875 0.23437,1.45313 q -0.6875,0.14062 -1.23437,0.14062 -0.89063,0 -1.39063,-0.28125 -0.48437,-0.28125 -0.6875,-0.73437 -0.20312,-0.46875 -0.20312,-1.9375 v -5.57813 h -1.20313 v -1.26562 h 1.20313 v -2.39063 l 1.625,-0.98437 v 3.375 h 1.65625 v 1.26562 h -1.65625 v 5.67188 q 0,0.6875 0.0781,0.89062 0.0938,0.20313 0.28125,0.32813 0.20313,0.10937 0.57813,0.10937 0.26562,0 0.71875,-0.0625 z m 8.23022,-1.64062 1.6875,0.20312 q -0.40625,1.48438 -1.48437,2.3125 -1.07813,0.8125 -2.76563,0.8125 -2.125,0 -3.375,-1.29687 -1.23437,-1.3125 -1.23437,-3.67188 0,-2.45312 1.25,-3.79687 1.26562,-1.34375 3.26562,-1.34375 1.9375,0 3.15625,1.32812 1.23438,1.3125 1.23438,3.70313 0,0.15625 0,0.4375 h -7.21875 q 0.0938,1.59375 0.90625,2.45312 0.8125,0.84375 2.01562,0.84375 0.90625,0 1.54688,-0.46875 0.64062,-0.48437 1.01562,-1.51562 z m -5.39062,-2.65625 h 5.40625 q -0.10938,-1.21875 -0.625,-1.82813 -0.78125,-0.95312 -2.03125,-0.95312 -1.125,0 -1.90625,0.76562 -0.76563,0.75 -0.84375,2.01563 z m 9.1413,5.76562 v -9.67187 h 1.46875 v 1.375 q 1.0625,-1.59375 3.07812,-1.59375 0.875,0 1.60938,0.3125 0.73437,0.3125 1.09375,0.82812 0.375,0.5 0.51562,1.20313 0.0938,0.45312 0.0938,1.59375 v 5.95312 h -1.64062 v -5.89062 q 0,-1 -0.20313,-1.48438 -0.1875,-0.5 -0.67187,-0.79687 -0.48438,-0.29688 -1.14063,-0.29688 -1.04687,0 -1.8125,0.67188 -0.75,0.65625 -0.75,2.51562 v 5.28125 z m 13.95385,-1.46875 0.23438,1.45313 q -0.6875,0.14062 -1.23438,0.14062 -0.89062,0 -1.39062,-0.28125 -0.48438,-0.28125 -0.6875,-0.73437 -0.20313,-0.46875 -0.20313,-1.9375 v -5.57813 h -1.20312 v -1.26562 h 1.20312 v -2.39063 l 1.625,-0.98437 v 3.375 h 1.65625 v 1.26562 h -1.65625 v 5.67188 q 0,0.6875 0.0781,0.89062 0.0938,0.20313 0.28125,0.32813 0.20312,0.10937 0.57812,0.10937 0.26563,0 0.71875,-0.0625 z m 2.02704,1.46875 v -1.875 h 1.875 v 1.875 q 0,1.03125 -0.375,1.65625 -0.35937,0.64063 -1.15625,0.98438 l -0.45312,-0.70313 q 0.51562,-0.21875 0.76562,-0.67187 0.25,-0.4375 0.28125,-1.26563 z m 9.61664,-6.5 q 0,-3.32812 1.78125,-5.20312 1.78125,-1.89063 4.60937,-1.89063 1.84375,0 3.32813,0.89063 1.48437,0.875 2.26562,2.46875 0.78125,1.57812 0.78125,3.57812 0,2.03125 -0.82812,3.64063 -0.8125,1.59375 -2.3125,2.42187 -1.5,0.82813 -3.25,0.82813 -1.875,0 -3.35938,-0.90625 -1.48437,-0.92188 -2.25,-2.5 -0.76562,-1.57813 -0.76562,-3.32813 z m 1.8125,0.0156 q 0,2.42187 1.29687,3.8125 1.29688,1.39062 3.26563,1.39062 2,0 3.28125,-1.40625 1.28125,-1.40625 1.28125,-3.98437 0,-1.625 -0.54688,-2.84375 -0.54687,-1.21875 -1.60937,-1.875 -1.0625,-0.67188 -2.375,-0.67188 -1.89063,0 -3.25,1.29688 -1.34375,1.28125 -1.34375,4.28125 z m 13.01141,6.48437 v -9.67187 h 1.46875 v 1.46875 q 0.5625,-1.03125 1.03125,-1.35938 0.48438,-0.32812 1.0625,-0.32812 0.82813,0 1.6875,0.53125 l -0.5625,1.51562 q -0.60937,-0.35937 -1.20312,-0.35937 -0.54688,0 -0.96875,0.32812 -0.42188,0.32813 -0.60938,0.89063 -0.28125,0.875 -0.28125,1.92187 v 5.0625 z m 6.22834,-11.46875 v -1.89062 h 1.64062 v 1.89062 z m 0,11.46875 v -9.67187 h 1.64062 v 9.67187 z m 3.83227,0.79688 1.59375,0.23437 q 0.10938,0.75 0.5625,1.07813 0.60938,0.45312 1.67188,0.45312 1.14062,0 1.75,-0.45312 0.625,-0.45313 0.84375,-1.26563 0.125,-0.5 0.10937,-2.10937 -1.0625,1.26562 -2.67187,1.26562 -2,0 -3.09375,-1.4375 -1.09375,-1.4375 -1.09375,-3.45312 0,-1.39063 0.5,-2.5625 0.51562,-1.17188 1.45312,-1.79688 0.95313,-0.64062 2.25,-0.64062 1.70313,0 2.8125,1.375 v -1.15625 h 1.51563 v 8.35937 q 0,2.26563 -0.46875,3.20313 -0.45313,0.9375 -1.45313,1.48437 -0.98437,0.54688 -2.45312,0.54688 -1.71875,0 -2.79688,-0.78125 -1.0625,-0.76563 -1.03125,-2.34375 z m 1.35938,-5.8125 q 0,1.90625 0.75,2.78125 0.76562,0.875 1.90625,0.875 1.125,0 1.89062,-0.85938 0.76563,-0.875 0.76563,-2.73437 0,-1.78125 -0.79688,-2.67188 -0.78125,-0.90625 -1.89062,-0.90625 -1.09375,0 -1.85938,0.89063 -0.76562,0.875 -0.76562,2.625 z m 9.32885,-6.45313 v -1.89062 h 1.64063 v 1.89062 z m 0,11.46875 v -9.67187 h 1.64063 v 9.67187 z m 4.14484,0 v -9.67187 h 1.46875 v 1.375 q 1.0625,-1.59375 3.07812,-1.59375 0.875,0 1.60938,0.3125 0.73437,0.3125 1.09375,0.82812 0.375,0.5 0.51562,1.20313 0.0938,0.45312 0.0938,1.59375 v 5.95312 h -1.64062 v -5.89062 q 0,-1 -0.20313,-1.48438 -0.1875,-0.5 -0.67187,-0.79687 -0.48438,-0.29688 -1.14063,-0.29688 -1.04687,0 -1.8125,0.67188 -0.75,0.65625 -0.75,2.51562 v 5.28125 z m 10.79755,0 v -1.875 h 1.875 v 1.875 q 0,1.03125 -0.375,1.65625 -0.35938,0.64063 -1.15625,0.98438 l -0.45313,-0.70313 q 0.51563,-0.21875 0.76563,-0.67187 0.25,-0.4375 0.28125,-1.26563 z"
       fill-rule="nonzero"
       id="path13" />
    <path
       fill="#000000"
       d="m 455.92862,265.0588 1.65625,-0.14062 q 0.125,1 0.54688,1.64062 0.4375,0.64063 1.34375,1.04688 0.92187,0.39062 2.0625,0.39062 1,0 1.78125,-0.29687 0.78125,-0.29688 1.15625,-0.8125 0.375,-0.53125 0.375,-1.15625 0,-0.625 -0.375,-1.09375 -0.35938,-0.46875 -1.1875,-0.79688 -0.54688,-0.20312 -2.39063,-0.64062 -1.82812,-0.45313 -2.5625,-0.84375 -0.96875,-0.5 -1.4375,-1.23438 -0.46875,-0.75 -0.46875,-1.67187 0,-1 0.57813,-1.875 0.57812,-0.89063 1.67187,-1.34375 1.10938,-0.45311 2.45313,-0.45311 1.48437,0 2.60937,0.48436 1.14063,0.46875 1.75,1.40625 0.60938,0.92187 0.65625,2.09375 l -1.6875,0.125 q -0.14062,-1.26563 -0.9375,-1.90625 -0.78125,-0.65625 -2.3125,-0.65625 -1.60937,0 -2.34375,0.59375 -0.73437,0.59375 -0.73437,1.42187 0,0.71875 0.53125,1.17188 0.5,0.46875 2.65625,0.96875 2.15625,0.48437 2.95312,0.84375 1.17188,0.53125 1.71875,1.35937 0.5625,0.82813 0.5625,1.90625 0,1.0625 -0.60937,2.01563 -0.60938,0.9375 -1.75,1.46875 -1.14063,0.51562 -2.57813,0.51562 -1.8125,0 -3.04687,-0.53125 -1.21875,-0.53125 -1.92188,-1.59375 -0.6875,-1.0625 -0.71875,-2.40625 z m 12.8342,8 v -13.375 h 1.48437 v 1.25 q 0.53125,-0.73437 1.1875,-1.09375 0.67188,-0.375 1.625,-0.375 1.23438,0 2.17188,0.64063 0.95312,0.625 1.4375,1.79687 0.48437,1.15625 0.48437,2.54688 0,1.48437 -0.53125,2.67187 -0.53125,1.1875 -1.54687,1.82813 -1.01563,0.625 -2.14063,0.625 -0.8125,0 -1.46875,-0.34375 -0.65625,-0.34375 -1.0625,-0.875 v 4.70312 z m 1.48437,-8.48437 q 0,1.85937 0.75,2.76562 0.76563,0.89063 1.82813,0.89063 1.09375,0 1.875,-0.92188 0.78125,-0.9375 0.78125,-2.875 0,-1.84375 -0.76563,-2.76562 -0.75,-0.92188 -1.8125,-0.92188 -1.04687,0 -1.85937,0.98438 -0.79688,0.96875 -0.79688,2.84375 z m 15.20383,3.59375 q -0.92187,0.76562 -1.76562,1.09375 -0.82813,0.3125 -1.79688,0.3125 -1.59375,0 -2.45312,-0.78125 -0.85938,-0.78125 -0.85938,-1.98438 0,-0.71875 0.32813,-1.29687 0.32812,-0.59375 0.84375,-0.9375 0.53125,-0.35938 1.1875,-0.54688 0.46875,-0.125 1.45312,-0.25 1.98438,-0.23437 2.92188,-0.5625 0.0156,-0.34375 0.0156,-0.42187 0,-1 -0.46875,-1.42188 -0.625,-0.54687 -1.875,-0.54687 -1.15625,0 -1.70312,0.40625 -0.54688,0.40625 -0.8125,1.42187 l -1.60938,-0.21875 q 0.21875,-1.01562 0.71875,-1.64062 0.5,-0.64063 1.45313,-0.98438 0.95312,-0.34375 2.1875,-0.34375 1.25,0 2.01562,0.29688 0.78125,0.28125 1.14063,0.73437 0.375,0.4375 0.51562,1.10938 0.0781,0.42187 0.0781,1.51562 v 2.1875 q 0,2.28125 0.10937,2.89063 0.10938,0.59375 0.40625,1.15625 h -1.70312 q -0.26563,-0.51563 -0.32813,-1.1875 z m -0.14062,-3.67188 q -0.89063,0.375 -2.67188,0.625 -1.01562,0.14063 -1.4375,0.32813 -0.42187,0.1875 -0.65625,0.53125 -0.21875,0.34375 -0.21875,0.78125 0,0.65625 0.5,1.09375 0.5,0.4375 1.45313,0.4375 0.9375,0 1.67187,-0.40625 0.75,-0.42188 1.09375,-1.14063 0.26563,-0.5625 0.26563,-1.64062 z m 10.51635,1.3125 1.60938,0.21875 q -0.26563,1.65625 -1.35938,2.60938 -1.07812,0.9375 -2.67187,0.9375 -1.98438,0 -3.1875,-1.29688 -1.20313,-1.29687 -1.20313,-3.71875 0,-1.57812 0.51563,-2.75 0.51562,-1.17187 1.57812,-1.75 1.0625,-0.59375 2.3125,-0.59375 1.57813,0 2.57813,0.79688 1,0.79687 1.28125,2.26562 l -1.59375,0.23438 q -0.23438,-0.96875 -0.8125,-1.45313 -0.57813,-0.5 -1.39063,-0.5 -1.23437,0 -2.01562,0.89063 -0.78125,0.89062 -0.78125,2.8125 0,1.95312 0.75,2.84375 0.75,0.875 1.95312,0.875 0.96875,0 1.60938,-0.59375 0.65625,-0.59375 0.82812,-1.82813 z m 3.01563,-7.92187 v -1.89061 h 1.64062 v 1.89061 z m 0,11.46875 v -9.67188 h 1.64062 v 9.67188 z m 4.1448,0 v -9.67188 h 1.46875 v 1.375 q 1.0625,-1.59375 3.07813,-1.59375 0.875,0 1.60937,0.3125 0.73438,0.3125 1.09375,0.82813 0.375,0.5 0.51563,1.20312 0.0938,0.45313 0.0938,1.59375 v 5.95313 h -1.64063 v -5.89063 q 0,-1 -0.20312,-1.48437 -0.1875,-0.5 -0.67188,-0.79688 -0.48437,-0.29687 -1.14062,-0.29687 -1.04688,0 -1.8125,0.67187 -0.75,0.65625 -0.75,2.51563 v 5.28125 z m 10.06324,0.79687 1.59375,0.23438 q 0.10937,0.75 0.5625,1.07812 0.60937,0.45313 1.67187,0.45313 1.14063,0 1.75,-0.45313 0.625,-0.45312 0.84375,-1.26562 0.125,-0.5 0.10938,-2.10938 -1.0625,1.26563 -2.67188,1.26563 -2,0 -3.09375,-1.4375 -1.09375,-1.4375 -1.09375,-3.45313 0,-1.39062 0.5,-2.5625 0.51563,-1.17187 1.45313,-1.79687 0.95312,-0.64063 2.25,-0.64063 1.70312,0 2.8125,1.375 v -1.15625 h 1.51562 v 8.35938 q 0,2.26562 -0.46875,3.20312 -0.45312,0.9375 -1.45312,1.48438 -0.98438,0.54687 -2.45313,0.54687 -1.71875,0 -2.79687,-0.78125 -1.0625,-0.76562 -1.03125,-2.34375 z m 1.35937,-5.8125 q 0,1.90625 0.75,2.78125 0.76563,0.875 1.90625,0.875 1.125,0 1.89063,-0.85937 0.76562,-0.875 0.76562,-2.73438 0,-1.78125 -0.79687,-2.67187 -0.78125,-0.90625 -1.89063,-0.90625 -1.09375,0 -1.85937,0.89062 -0.76563,0.875 -0.76563,2.625 z m 9.75073,5.01563 v -1.875 h 1.875 v 1.875 q 0,1.03125 -0.375,1.65625 -0.35937,0.64062 -1.15625,0.98437 l -0.45312,-0.70312 q 0.51562,-0.21875 0.76562,-0.67188 0.25,-0.4375 0.28125,-1.26562 z m 10.14783,0 v -13.35936 h 4.60937 q 1.54688,0 2.375,0.2031 1.14063,0.25 1.95313,0.95313 1.0625,0.89062 1.57812,2.28125 0.53125,1.39062 0.53125,3.17187 0,1.51563 -0.35937,2.70313 -0.35938,1.17187 -0.92188,1.9375 -0.54687,0.76562 -1.20312,1.21875 -0.65625,0.4375 -1.59375,0.67187 -0.9375,0.21875 -2.14063,0.21875 z m 1.76562,-1.57813 h 2.85938 q 1.3125,0 2.0625,-0.23437 0.75,-0.25 1.20312,-0.70313 0.625,-0.625 0.96875,-1.6875 0.35938,-1.0625 0.35938,-2.57812 0,-2.09375 -0.6875,-3.21875 -0.6875,-1.125 -1.67188,-1.5 -0.70312,-0.28125 -2.28125,-0.28125 h -2.8125 z m 11.50422,-9.89062 v -1.89061 h 1.64062 v 1.89061 z m 0,11.46875 v -9.67188 h 1.64062 v 9.67188 z m 4.12921,0 v -9.67188 h 1.46875 v 1.46875 q 0.5625,-1.03125 1.03125,-1.35937 0.48437,-0.32813 1.0625,-0.32813 0.82812,0 1.6875,0.53125 l -0.5625,1.51563 q -0.60938,-0.35938 -1.20313,-0.35938 -0.54687,0 -0.96875,0.32813 -0.42187,0.32812 -0.60937,0.89062 -0.28125,0.875 -0.28125,1.92188 v 5.0625 z m 12.85327,-3.10938 1.6875,0.20313 q -0.40625,1.48437 -1.48438,2.3125 -1.07812,0.8125 -2.76562,0.8125 -2.125,0 -3.375,-1.29688 -1.23438,-1.3125 -1.23438,-3.67187 0,-2.45313 1.25,-3.79688 1.26563,-1.34375 3.26563,-1.34375 1.9375,0 3.15625,1.32813 1.23437,1.3125 1.23437,3.70312 0,0.15625 0,0.4375 h -7.21875 q 0.0938,1.59375 0.90625,2.45313 0.8125,0.84375 2.01563,0.84375 0.90625,0 1.54687,-0.46875 0.64063,-0.48438 1.01563,-1.51563 z m -5.39063,-2.65625 h 5.40625 q -0.10937,-1.21875 -0.625,-1.82812 -0.78125,-0.95313 -2.03125,-0.95313 -1.125,0 -1.90625,0.76563 -0.76562,0.75 -0.84375,2.01562 z m 15.45386,2.21875 1.60937,0.21875 q -0.26562,1.65625 -1.35937,2.60938 -1.07813,0.9375 -2.67188,0.9375 -1.98437,0 -3.1875,-1.29688 -1.20312,-1.29687 -1.20312,-3.71875 0,-1.57812 0.51562,-2.75 0.51563,-1.17187 1.57813,-1.75 1.0625,-0.59375 2.3125,-0.59375 1.57812,0 2.57812,0.79688 1,0.79687 1.28125,2.26562 l -1.59375,0.23438 q -0.23437,-0.96875 -0.8125,-1.45313 -0.57812,-0.5 -1.39062,-0.5 -1.23438,0 -2.01563,0.89063 -0.78125,0.89062 -0.78125,2.8125 0,1.95312 0.75,2.84375 0.75,0.875 1.95313,0.875 0.96875,0 1.60937,-0.59375 0.65625,-0.59375 0.82813,-1.82813 z m 6.59375,2.07813 0.23437,1.45312 q -0.6875,0.14063 -1.23437,0.14063 -0.89063,0 -1.39063,-0.28125 -0.48437,-0.28125 -0.6875,-0.73438 -0.20312,-0.46875 -0.20312,-1.9375 v -5.57812 h -1.20313 v -1.26563 h 1.20313 v -2.39062 l 1.625,-0.98438 v 3.375 h 1.65625 v 1.26563 h -1.65625 v 5.67187 q 0,0.6875 0.0781,0.89063 0.0938,0.20312 0.28125,0.32812 0.20313,0.10938 0.57813,0.10938 0.26562,0 0.71875,-0.0625 z m 1.60516,-10 v -1.89061 h 1.64063 v 1.89061 z m 0,11.46875 v -9.67188 h 1.64063 v 9.67188 z m 3.53546,-4.84375 q 0,-2.6875 1.48438,-3.96875 1.25,-1.07813 3.04687,-1.07813 2,0 3.26563,1.3125 1.26562,1.29688 1.26562,3.60938 0,1.85937 -0.5625,2.9375 -0.5625,1.0625 -1.64062,1.65625 -1.0625,0.59375 -2.32813,0.59375 -2.03125,0 -3.28125,-1.29688 -1.25,-1.3125 -1.25,-3.76562 z m 1.6875,0 q 0,1.85937 0.79688,2.79687 0.8125,0.92188 2.04687,0.92188 1.21875,0 2.03125,-0.92188 0.8125,-0.9375 0.8125,-2.84375 0,-1.79687 -0.8125,-2.71875 -0.8125,-0.92187 -2.03125,-0.92187 -1.23437,0 -2.04687,0.92187 -0.79688,0.90625 -0.79688,2.76563 z m 9.29761,4.84375 v -9.67188 h 1.46875 v 1.375 q 1.0625,-1.59375 3.07813,-1.59375 0.875,0 1.60937,0.3125 0.73438,0.3125 1.09375,0.82813 0.375,0.5 0.51563,1.20312 0.0938,0.45313 0.0938,1.59375 v 5.95313 h -1.64063 v -5.89063 q 0,-1 -0.20312,-1.48437 -0.1875,-0.5 -0.67188,-0.79688 -0.48437,-0.29687 -1.14062,-0.29687 -1.04688,0 -1.8125,0.67187 -0.75,0.65625 -0.75,2.51563 v 5.28125 z"
       fill-rule="nonzero"
       id="path15" />
    <path
       fill="#cfe2f3"
       d="m 421.2152,419.74426 v 0 c 0,-4.42416 3.58652,-8.01068 8.01068,-8.01068 h 168.95508 c 2.12451,0 4.16205,0.84399 5.66437,2.34628 1.50226,1.50229 2.34625,3.53983 2.34625,5.6644 v 32.04166 c 0,4.42416 -3.58649,8.01068 -8.01062,8.01068 H 429.22588 v 0 c -4.42416,0 -8.01068,-3.58652 -8.01068,-8.01068 z"
       fill-rule="evenodd"
       id="path17" />
    <path
       stroke="#000000"
       stroke-width="1"
       stroke-linejoin="round"
       stroke-linecap="butt"
       d="m 421.2152,419.74426 v 0 c 0,-4.42416 3.58652,-8.01068 8.01068,-8.01068 h 168.95508 c 2.12451,0 4.16205,0.84399 5.66437,2.34628 1.50226,1.50229 2.34625,3.53983 2.34625,5.6644 v 32.04166 c 0,4.42416 -3.58649,8.01068 -8.01062,8.01068 H 429.22588 v 0 c -4.42416,0 -8.01068,-3.58652 -8.01068,-8.01068 z"
       fill-rule="evenodd"
       id="path19" />
    <path
       fill="#000000"
       d="m 471.5285,431.6851 v -13.35938 h 4.32813 q 2.45312,0 3.20312,0.20313 1.14063,0.29687 1.92188,1.3125 0.78125,1 0.78125,2.59375 0,1.23437 -0.45313,2.07812 -0.45312,0.82813 -1.14062,1.3125 -0.6875,0.46875 -1.39063,0.625 -0.96875,0.20313 -2.79687,0.20313 H 474.216 v 5.03125 z m 2.6875,-11.09375 v 3.78125 h 1.48438 q 1.59375,0 2.125,-0.20313 0.54687,-0.20312 0.84375,-0.65625 0.3125,-0.45312 0.3125,-1.03125 0,-0.73437 -0.4375,-1.20312 -0.42188,-0.48438 -1.07813,-0.59375 -0.48437,-0.0938 -1.9375,-0.0938 z m 9.1467,6.125 q 0,-1.28125 0.625,-2.46875 0.625,-1.20313 1.78125,-1.82813 1.15625,-0.625 2.57812,-0.625 2.1875,0 3.59375,1.42188 1.40625,1.42187 1.40625,3.60937 0,2.1875 -1.42187,3.64063 -1.42188,1.4375 -3.5625,1.4375 -1.32813,0 -2.54688,-0.59375 -1.20312,-0.60938 -1.82812,-1.76563 -0.625,-1.17187 -0.625,-2.82812 z m 2.625,0.125 q 0,1.45312 0.67187,2.21875 0.6875,0.75 1.6875,0.75 1,0 1.67188,-0.75 0.6875,-0.76563 0.6875,-2.23438 0,-1.42187 -0.6875,-2.1875 -0.67188,-0.76562 -1.67188,-0.76562 -1,0 -1.6875,0.76562 -0.67187,0.76563 -0.67187,2.20313 z m 9.36471,-6.14063 v -2.375 h 2.5625 v 2.375 z m 0,10.98438 v -9.67188 h 2.5625 v 9.67188 z m 13.9802,0 h -2.5625 v -4.9375 q 0,-1.5625 -0.17188,-2.01563 -0.15625,-0.46875 -0.53125,-0.71875 -0.35937,-0.26562 -0.875,-0.26562 -0.67187,0 -1.20312,0.375 -0.53125,0.35937 -0.73438,0.96875 -0.1875,0.59375 -0.1875,2.21875 v 4.375 h -2.54687 v -9.67188 h 2.375 v 1.42188 q 1.26562,-1.64063 3.1875,-1.64063 0.84375,0 1.54687,0.3125 0.70313,0.29688 1.0625,0.78125 0.35938,0.46875 0.5,1.07813 0.14063,0.59375 0.14063,1.70312 z m 7.03659,-9.67188 v 2.03125 h -1.75 v 3.90625 q 0,1.1875 0.0469,1.39063 0.0469,0.1875 0.21875,0.3125 0.1875,0.125 0.4375,0.125 0.35938,0 1.03125,-0.25 l 0.21875,2 q -0.89062,0.375 -2.01562,0.375 -0.70313,0 -1.26563,-0.23438 -0.54687,-0.23437 -0.8125,-0.59375 -0.25,-0.375 -0.34375,-1 -0.0938,-0.45312 -0.0938,-1.8125 v -4.21875 h -1.17187 v -2.03125 h 1.17187 v -1.92187 l 2.57813,-1.5 v 3.42187 z m 1.77521,-3.6875 h 4.9375 q 1.65625,0 2.53125,0.26563 1.1875,0.34375 2.01562,1.23437 0.84375,0.875 1.28125,2.15625 0.4375,1.28125 0.4375,3.15625 0,1.64063 -0.40625,2.84375 -0.5,1.45313 -1.4375,2.35938 -0.70312,0.67187 -1.89062,1.0625 -0.89063,0.28125 -2.39063,0.28125 h -5.07812 z m 2.70312,2.26563 v 8.84375 h 2.01563 q 1.125,0 1.625,-0.125 0.65625,-0.17188 1.07812,-0.5625 0.4375,-0.39063 0.70313,-1.28125 0.28125,-0.90625 0.28125,-2.45313 0,-1.54687 -0.28125,-2.375 -0.26563,-0.82812 -0.76563,-1.28125 -0.48437,-0.46875 -1.23437,-0.64062 -0.5625,-0.125 -2.21875,-0.125 z m 12.67603,4.375 -2.32813,-0.42188 q 0.40625,-1.40625 1.35938,-2.07812 0.95312,-0.67188 2.84375,-0.67188 1.70312,0 2.54687,0.40625 0.84375,0.40625 1.17188,1.03125 0.34375,0.625 0.34375,2.28125 l -0.0156,3 q 0,1.26563 0.10938,1.875 0.125,0.60938 0.46875,1.29688 h -2.53125 q -0.10938,-0.25 -0.25,-0.75 -0.0625,-0.23438 -0.0938,-0.3125 -0.65625,0.64062 -1.40625,0.96875 -0.73438,0.3125 -1.59375,0.3125 -1.48438,0 -2.34375,-0.8125 -0.85938,-0.8125 -0.85938,-2.04688 0,-0.82812 0.39063,-1.46875 0.39062,-0.64062 1.09375,-0.96875 0.70312,-0.34375 2.03125,-0.60937 1.79687,-0.32813 2.48437,-0.625 v -0.25 q 0,-0.75 -0.35937,-1.0625 -0.35938,-0.3125 -1.375,-0.3125 -0.6875,0 -1.07813,0.28125 -0.375,0.26562 -0.60937,0.9375 z m 3.42187,2.07812 q -0.48437,0.15625 -1.5625,0.39063 -1.0625,0.21875 -1.39062,0.4375 -0.5,0.35937 -0.5,0.90625 0,0.53125 0.40625,0.9375 0.40625,0.39062 1.01562,0.39062 0.70313,0 1.32813,-0.46875 0.46875,-0.34375 0.60937,-0.84375 0.0938,-0.32812 0.0938,-1.25 z m 9.48511,-5.03125 v 2.03125 h -1.75 v 3.90625 q 0,1.1875 0.0469,1.39063 0.0469,0.1875 0.21875,0.3125 0.1875,0.125 0.4375,0.125 0.35938,0 1.03125,-0.25 l 0.21875,2 q -0.89062,0.375 -2.01562,0.375 -0.70313,0 -1.26563,-0.23438 -0.54687,-0.23437 -0.8125,-0.59375 -0.25,-0.375 -0.34375,-1 -0.0938,-0.45312 -0.0938,-1.8125 v -4.21875 h -1.17187 v -2.03125 h 1.17187 v -1.92187 l 2.57813,-1.5 v 3.42187 z m 3.68146,2.95313 -2.32813,-0.42188 q 0.40625,-1.40625 1.35938,-2.07812 0.95312,-0.67188 2.84375,-0.67188 1.70312,0 2.54687,0.40625 0.84375,0.40625 1.17188,1.03125 0.34375,0.625 0.34375,2.28125 l -0.0156,3 q 0,1.26563 0.10938,1.875 0.125,0.60938 0.46875,1.29688 h -2.53125 q -0.10938,-0.25 -0.25,-0.75 -0.0625,-0.23438 -0.0938,-0.3125 -0.65625,0.64062 -1.40625,0.96875 -0.73438,0.3125 -1.59375,0.3125 -1.48438,0 -2.34375,-0.8125 -0.85938,-0.8125 -0.85938,-2.04688 0,-0.82812 0.39063,-1.46875 0.39062,-0.64062 1.09375,-0.96875 0.70312,-0.34375 2.03125,-0.60937 1.79687,-0.32813 2.48437,-0.625 v -0.25 q 0,-0.75 -0.35937,-1.0625 -0.35938,-0.3125 -1.375,-0.3125 -0.6875,0 -1.07813,0.28125 -0.375,0.26562 -0.60937,0.9375 z m 3.42187,2.07812 q -0.48437,0.15625 -1.5625,0.39063 -1.0625,0.21875 -1.39062,0.4375 -0.5,0.35937 -0.5,0.90625 0,0.53125 0.40625,0.9375 0.40625,0.39062 1.01562,0.39062 0.70313,0 1.32813,-0.46875 0.46875,-0.34375 0.60937,-0.84375 0.0938,-0.32812 0.0938,-1.25 z"
       fill-rule="nonzero"
       id="path21" />
    <path
       fill="#000000"
       d="m 436.78424,449.3882 1.65625,-0.14063 q 0.125,1 0.54688,1.64063 0.4375,0.64062 1.34375,1.04687 0.92187,0.39063 2.0625,0.39063 1,0 1.78125,-0.29688 0.78125,-0.29687 1.15625,-0.8125 0.375,-0.53125 0.375,-1.15625 0,-0.625 -0.375,-1.09375 -0.35938,-0.46875 -1.1875,-0.79687 -0.54688,-0.20313 -2.39063,-0.64063 -1.82812,-0.45312 -2.5625,-0.84375 -0.96875,-0.5 -1.4375,-1.23437 -0.46875,-0.75 -0.46875,-1.67188 0,-1 0.57813,-1.875 0.57812,-0.89062 1.67187,-1.34375 1.10938,-0.45312 2.45313,-0.45312 1.48437,0 2.60937,0.48437 1.14063,0.46875 1.75,1.40625 0.60938,0.92188 0.65625,2.09375 l -1.6875,0.125 q -0.14062,-1.26562 -0.9375,-1.90625 -0.78125,-0.65625 -2.3125,-0.65625 -1.60937,0 -2.34375,0.59375 -0.73437,0.59375 -0.73437,1.42188 0,0.71875 0.53125,1.17187 0.5,0.46875 2.65625,0.96875 2.15625,0.48438 2.95312,0.84375 1.17188,0.53125 1.71875,1.35938 0.5625,0.82812 0.5625,1.90625 0,1.0625 -0.60937,2.01562 -0.60938,0.9375 -1.75,1.46875 -1.14063,0.51563 -2.57813,0.51563 -1.8125,0 -3.04687,-0.53125 -1.21875,-0.53125 -1.92188,-1.59375 -0.6875,-1.0625 -0.71875,-2.40625 z m 19.1467,0.75 1.60937,0.21875 q -0.26562,1.65625 -1.35937,2.60937 -1.07813,0.9375 -2.67188,0.9375 -1.98437,0 -3.1875,-1.29687 -1.20312,-1.29688 -1.20312,-3.71875 0,-1.57813 0.51562,-2.75 0.51563,-1.17188 1.57813,-1.75 1.0625,-0.59375 2.3125,-0.59375 1.57812,0 2.57812,0.79687 1,0.79688 1.28125,2.26563 l -1.59375,0.23437 q -0.23437,-0.96875 -0.8125,-1.45312 -0.57812,-0.5 -1.39062,-0.5 -1.23438,0 -2.01563,0.89062 -0.78125,0.89063 -0.78125,2.8125 0,1.95313 0.75,2.84375 0.75,0.875 1.95313,0.875 0.96875,0 1.60937,-0.59375 0.65625,-0.59375 0.82813,-1.82812 z m 9.32812,2.35937 q -0.92187,0.76563 -1.76562,1.09375 -0.82813,0.3125 -1.79688,0.3125 -1.59375,0 -2.45312,-0.78125 -0.85938,-0.78125 -0.85938,-1.98437 0,-0.71875 0.32813,-1.29688 0.32812,-0.59375 0.84375,-0.9375 0.53125,-0.35937 1.1875,-0.54687 0.46875,-0.125 1.45312,-0.25 1.98438,-0.23438 2.92188,-0.5625 0.0156,-0.34375 0.0156,-0.42188 0,-1 -0.46875,-1.42187 -0.625,-0.54688 -1.875,-0.54688 -1.15625,0 -1.70312,0.40625 -0.54688,0.40625 -0.8125,1.42188 l -1.60938,-0.21875 q 0.21875,-1.01563 0.71875,-1.64063 0.5,-0.64062 1.45313,-0.98437 0.95312,-0.34375 2.1875,-0.34375 1.25,0 2.01562,0.29687 0.78125,0.28125 1.14063,0.73438 0.375,0.4375 0.51562,1.10937 0.0781,0.42188 0.0781,1.51563 v 2.1875 q 0,2.28125 0.10937,2.89062 0.10938,0.59375 0.40625,1.15625 h -1.70312 q -0.26563,-0.51562 -0.32813,-1.1875 z m -0.14062,-3.67187 q -0.89063,0.375 -2.67188,0.625 -1.01562,0.14062 -1.4375,0.32812 -0.42187,0.1875 -0.65625,0.53125 -0.21875,0.34375 -0.21875,0.78125 0,0.65625 0.5,1.09375 0.5,0.4375 1.45313,0.4375 0.9375,0 1.67187,-0.40625 0.75,-0.42187 1.09375,-1.14062 0.26563,-0.5625 0.26563,-1.64063 z m 4.15695,4.85937 V 440.3257 h 1.64063 v 13.35937 z m 10.50421,-1.1875 q -0.92187,0.76563 -1.76562,1.09375 -0.82813,0.3125 -1.79688,0.3125 -1.59375,0 -2.45312,-0.78125 -0.85938,-0.78125 -0.85938,-1.98437 0,-0.71875 0.32813,-1.29688 0.32812,-0.59375 0.84375,-0.9375 0.53125,-0.35937 1.1875,-0.54687 0.46875,-0.125 1.45312,-0.25 1.98438,-0.23438 2.92188,-0.5625 0.0156,-0.34375 0.0156,-0.42188 0,-1 -0.46875,-1.42187 -0.625,-0.54688 -1.875,-0.54688 -1.15625,0 -1.70312,0.40625 -0.54688,0.40625 -0.8125,1.42188 l -1.60938,-0.21875 q 0.21875,-1.01563 0.71875,-1.64063 0.5,-0.64062 1.45313,-0.98437 0.95312,-0.34375 2.1875,-0.34375 1.25,0 2.01562,0.29687 0.78125,0.28125 1.14063,0.73438 0.375,0.4375 0.51562,1.10937 0.0781,0.42188 0.0781,1.51563 v 2.1875 q 0,2.28125 0.10937,2.89062 0.10938,0.59375 0.40625,1.15625 h -1.70312 q -0.26563,-0.51562 -0.32813,-1.1875 z m -0.14062,-3.67187 q -0.89063,0.375 -2.67188,0.625 -1.01562,0.14062 -1.4375,0.32812 -0.42187,0.1875 -0.65625,0.53125 -0.21875,0.34375 -0.21875,0.78125 0,0.65625 0.5,1.09375 0.5,0.4375 1.45313,0.4375 0.9375,0 1.67187,-0.40625 0.75,-0.42187 1.09375,-1.14062 0.26563,-0.5625 0.26563,-1.64063 z m 4.1882,4.85937 v -9.67187 h 1.46875 v 1.46875 q 0.5625,-1.03125 1.03125,-1.35938 0.48437,-0.32812 1.0625,-0.32812 0.82812,0 1.6875,0.53125 l -0.5625,1.51562 q -0.60938,-0.35937 -1.20313,-0.35937 -0.54687,0 -0.96875,0.32812 -0.42187,0.32813 -0.60937,0.89063 -0.28125,0.875 -0.28125,1.92187 v 5.0625 z m 5.57205,-2.89062 1.625,-0.25 q 0.125,0.96875 0.75,1.5 0.625,0.51562 1.75,0.51562 1.125,0 1.67187,-0.45312 0.54688,-0.46875 0.54688,-1.09375 0,-0.54688 -0.48438,-0.875 -0.32812,-0.21875 -1.67187,-0.54688 -1.8125,-0.46875 -2.51563,-0.79687 -0.6875,-0.32813 -1.04687,-0.90625 -0.35938,-0.59375 -0.35938,-1.3125 0,-0.64063 0.29688,-1.1875 0.29687,-0.5625 0.8125,-0.92188 0.375,-0.28125 1.03125,-0.46875 0.67187,-0.20312 1.42187,-0.20312 1.14063,0 2,0.32812 0.85938,0.32813 1.26563,0.89063 0.42187,0.5625 0.57812,1.5 l -1.60937,0.21875 q -0.10938,-0.75 -0.64063,-1.17188 -0.51562,-0.42187 -1.46875,-0.42187 -1.14062,0 -1.625,0.375 -0.46875,0.375 -0.46875,0.875 0,0.3125 0.1875,0.57812 0.20313,0.26563 0.64063,0.4375 0.23437,0.0938 1.4375,0.42188 1.75,0.45312 2.4375,0.75 0.6875,0.29687 1.07812,0.85937 0.39063,0.5625 0.39063,1.40625 0,0.82813 -0.48438,1.54688 -0.46875,0.71875 -1.375,1.125 -0.90625,0.39062 -2.04687,0.39062 -1.875,0 -2.875,-0.78125 -0.98438,-0.78125 -1.25,-2.32812 z m 10.40625,2.89062 v -1.875 h 1.875 v 1.875 q 0,1.03125 -0.375,1.65625 -0.35938,0.64063 -1.15625,0.98438 l -0.45313,-0.70313 q 0.51563,-0.21875 0.76563,-0.67187 0.25,-0.4375 0.28125,-1.26563 z m 13.96039,0 -5.17191,-13.35937 h 1.92188 l 3.46878,9.70312 q 0.42187,1.17188 0.70312,2.1875 0.3125,-1.09375 0.71875,-2.1875 l 3.60938,-9.70312 h 1.79687 l -5.23437,13.35937 z m 14.02295,-3.10937 1.6875,0.20312 q -0.40625,1.48438 -1.48438,2.3125 -1.07812,0.8125 -2.76562,0.8125 -2.125,0 -3.375,-1.29687 -1.23438,-1.3125 -1.23438,-3.67188 0,-2.45312 1.25,-3.79687 1.26563,-1.34375 3.26563,-1.34375 1.9375,0 3.15625,1.32812 1.23437,1.3125 1.23437,3.70313 0,0.15625 0,0.4375 h -7.21875 q 0.0938,1.59375 0.90625,2.45312 0.8125,0.84375 2.01563,0.84375 0.90625,0 1.54687,-0.46875 0.64063,-0.48437 1.01563,-1.51562 z m -5.39063,-2.65625 h 5.40625 q -0.10937,-1.21875 -0.625,-1.82813 -0.78125,-0.95312 -2.03125,-0.95312 -1.125,0 -1.90625,0.76562 -0.76562,0.75 -0.84375,2.01563 z m 15.45386,2.21875 1.60937,0.21875 q -0.26562,1.65625 -1.35937,2.60937 -1.07813,0.9375 -2.67188,0.9375 -1.98437,0 -3.1875,-1.29687 -1.20312,-1.29688 -1.20312,-3.71875 0,-1.57813 0.51562,-2.75 0.51563,-1.17188 1.57813,-1.75 1.0625,-0.59375 2.3125,-0.59375 1.57812,0 2.57812,0.79687 1,0.79688 1.28125,2.26563 l -1.59375,0.23437 q -0.23437,-0.96875 -0.8125,-1.45312 -0.57812,-0.5 -1.39062,-0.5 -1.23438,0 -2.01563,0.89062 -0.78125,0.89063 -0.78125,2.8125 0,1.95313 0.75,2.84375 0.75,0.875 1.95313,0.875 0.96875,0 1.60937,-0.59375 0.65625,-0.59375 0.82813,-1.82812 z m 6.59375,2.07812 0.23437,1.45313 q -0.6875,0.14062 -1.23437,0.14062 -0.89063,0 -1.39063,-0.28125 -0.48437,-0.28125 -0.6875,-0.73437 -0.20312,-0.46875 -0.20312,-1.9375 v -5.57813 h -1.20313 v -1.26562 h 1.20313 v -2.39063 l 1.625,-0.98437 v 3.375 h 1.65625 v 1.26562 h -1.65625 v 5.67188 q 0,0.6875 0.0781,0.89062 0.0938,0.20313 0.28125,0.32813 0.20313,0.10937 0.57813,0.10937 0.26562,0 0.71875,-0.0625 z m 0.99579,-3.375 q 0,-2.6875 1.48437,-3.96875 1.25,-1.07812 3.04688,-1.07812 2,0 3.26562,1.3125 1.26563,1.29687 1.26563,3.60937 0,1.85938 -0.5625,2.9375 -0.5625,1.0625 -1.64063,1.65625 -1.0625,0.59375 -2.32812,0.59375 -2.03125,0 -3.28125,-1.29687 -1.25,-1.3125 -1.25,-3.76563 z m 1.6875,0 q 0,1.85938 0.79687,2.79688 0.8125,0.92187 2.04688,0.92187 1.21875,0 2.03125,-0.92187 0.8125,-0.9375 0.8125,-2.84375 0,-1.79688 -0.8125,-2.71875 -0.8125,-0.92188 -2.03125,-0.92188 -1.23438,0 -2.04688,0.92188 -0.79687,0.90625 -0.79687,2.76562 z m 9.28198,4.84375 v -9.67187 h 1.46875 v 1.46875 q 0.5625,-1.03125 1.03125,-1.35938 0.48437,-0.32812 1.0625,-0.32812 0.82812,0 1.6875,0.53125 l -0.5625,1.51562 q -0.60938,-0.35937 -1.20313,-0.35937 -0.54687,0 -0.96875,0.32812 -0.42187,0.32813 -0.60937,0.89063 -0.28125,0.875 -0.28125,1.92187 v 5.0625 z m 5.57208,-2.89062 1.625,-0.25 q 0.125,0.96875 0.75,1.5 0.625,0.51562 1.75,0.51562 1.125,0 1.67188,-0.45312 0.54687,-0.46875 0.54687,-1.09375 0,-0.54688 -0.48437,-0.875 -0.32813,-0.21875 -1.67188,-0.54688 -1.8125,-0.46875 -2.51562,-0.79687 -0.6875,-0.32813 -1.04688,-0.90625 -0.35937,-0.59375 -0.35937,-1.3125 0,-0.64063 0.29687,-1.1875 0.29688,-0.5625 0.8125,-0.92188 0.375,-0.28125 1.03125,-0.46875 0.67188,-0.20312 1.42188,-0.20312 1.14062,0 2,0.32812 0.85937,0.32813 1.26562,0.89063 0.42188,0.5625 0.57813,1.5 l -1.60938,0.21875 q -0.10937,-0.75 -0.64062,-1.17188 -0.51563,-0.42187 -1.46875,-0.42187 -1.14063,0 -1.625,0.375 -0.46875,0.375 -0.46875,0.875 0,0.3125 0.1875,0.57812 0.20312,0.26563 0.64062,0.4375 0.23438,0.0938 1.4375,0.42188 1.75,0.45312 2.4375,0.75 0.6875,0.29687 1.07813,0.85937 0.39062,0.5625 0.39062,1.40625 0,0.82813 -0.48437,1.54688 -0.46875,0.71875 -1.375,1.125 -0.90625,0.39062 -2.04688,0.39062 -1.875,0 -2.875,-0.78125 -0.98437,-0.78125 -1.25,-2.32812 z m 15.62079,2.89062 v -1.875 h 1.875 v 1.875 z m 5.18329,0 v -1.875 h 1.875 v 1.875 z m 5.18329,0 v -1.875 h 1.875 v 1.875 z"
       fill-rule="nonzero"
       id="path23" />
    <path
       fill="#cfe2f3"
       d="m 622.5591,419.74426 v 0 c 0,-4.42416 3.58649,-8.01068 8.01062,-8.01068 h 167.66376 c 2.12451,0 4.16205,0.84399 5.66437,2.34628 1.50232,1.50229 2.34625,3.53983 2.34625,5.6644 v 32.04166 c 0,4.42416 -3.58649,8.01068 -8.01062,8.01068 H 630.56972 c -4.42413,0 -8.01062,-3.58652 -8.01062,-8.01068 z"
       fill-rule="evenodd"
       id="path25" />
    <path
       stroke="#000000"
       stroke-width="1"
       stroke-linejoin="round"
       stroke-linecap="butt"
       d="m 622.5591,419.74426 v 0 c 0,-4.42416 3.58649,-8.01068 8.01062,-8.01068 h 167.66376 c 2.12451,0 4.16205,0.84399 5.66437,2.34628 1.50232,1.50229 2.34625,3.53983 2.34625,5.6644 v 32.04166 c 0,4.42416 -3.58649,8.01068 -8.01062,8.01068 H 630.56972 c -4.42413,0 -8.01062,-3.58652 -8.01062,-8.01068 z"
       fill-rule="evenodd"
       id="path27" />
    <path
       fill="#000000"
       d="m 686.9817,426.77884 2.60938,0.82813 q -0.59375,2.1875 -2,3.25 -1.39063,1.0625 -3.54688,1.0625 -2.65625,0 -4.375,-1.8125 -1.70312,-1.82813 -1.70312,-4.98438 0,-3.32812 1.71875,-5.17187 1.71875,-1.84375 4.51562,-1.84375 2.45313,0 3.98438,1.4375 0.92187,0.85937 1.375,2.46875 l -2.67188,0.64062 q -0.23437,-1.04687 -0.98437,-1.64062 -0.75,-0.60938 -1.82813,-0.60938 -1.48437,0 -2.42187,1.07813 -0.92188,1.0625 -0.92188,3.4375 0,2.53125 0.90625,3.60937 0.92188,1.07813 2.375,1.07813 1.07813,0 1.84375,-0.67188 0.78125,-0.6875 1.125,-2.15625 z m 10.50415,1.82813 2.54688,0.42187 q -0.48438,1.40625 -1.54688,2.14063 -1.0625,0.73437 -2.65625,0.73437 -2.51562,0 -3.73437,-1.65625 -0.95313,-1.3125 -0.95313,-3.32812 0,-2.40625 1.25,-3.76563 1.26563,-1.35937 3.1875,-1.35937 2.15625,0 3.40625,1.42187 1.25,1.42188 1.1875,4.375 h -6.40625 q 0.0312,1.14063 0.60938,1.78125 0.59375,0.625 1.48437,0.625 0.59375,0 1,-0.32812 0.42188,-0.32813 0.625,-1.0625 z m 0.15625,-2.59375 q -0.0312,-1.10938 -0.57812,-1.6875 -0.54688,-0.57813 -1.32813,-0.57813 -0.84375,0 -1.39062,0.60938 -0.54688,0.60937 -0.53125,1.65625 z m 4.62573,5.67187 v -13.35937 h 2.5625 v 13.35937 z m 5.18329,0 v -13.35937 h 2.5625 v 13.35937 z m 5.18335,-13.35937 h 4.9375 q 1.65625,0 2.53125,0.26562 1.1875,0.34375 2.01563,1.23438 0.84375,0.875 1.28125,2.15625 0.4375,1.28125 0.4375,3.15625 0,1.64062 -0.40625,2.84375 -0.5,1.45312 -1.4375,2.35937 -0.70313,0.67188 -1.89063,1.0625 -0.89062,0.28125 -2.39062,0.28125 h -5.07813 z m 2.70313,2.26562 v 8.84375 h 2.01562 q 1.125,0 1.625,-0.125 0.65625,-0.17187 1.07813,-0.5625 0.4375,-0.39062 0.70312,-1.28125 0.28125,-0.90625 0.28125,-2.45312 0,-1.54688 -0.28125,-2.375 -0.26562,-0.82813 -0.76562,-1.28125 -0.48438,-0.46875 -1.23438,-0.64063 -0.5625,-0.125 -2.21875,-0.125 z m 12.67602,4.375 -2.32812,-0.42187 q 0.40625,-1.40625 1.35937,-2.07813 0.95313,-0.67187 2.84375,-0.67187 1.70313,0 2.54688,0.40625 0.84375,0.40625 1.17187,1.03125 0.34375,0.625 0.34375,2.28125 l -0.0156,3 q 0,1.26562 0.10937,1.875 0.125,0.60937 0.46875,1.29687 h -2.53125 q -0.10937,-0.25 -0.25,-0.75 -0.0625,-0.23437 -0.0938,-0.3125 -0.65625,0.64063 -1.40625,0.96875 -0.73437,0.3125 -1.59375,0.3125 -1.48437,0 -2.34375,-0.8125 -0.85937,-0.8125 -0.85937,-2.04687 0,-0.82813 0.39062,-1.46875 0.39063,-0.64063 1.09375,-0.96875 0.70313,-0.34375 2.03125,-0.60938 1.79688,-0.32812 2.48438,-0.625 v -0.25 q 0,-0.75 -0.35938,-1.0625 -0.35937,-0.3125 -1.375,-0.3125 -0.6875,0 -1.07812,0.28125 -0.375,0.26563 -0.60938,0.9375 z m 3.42188,2.07813 q -0.48438,0.15625 -1.5625,0.39062 -1.0625,0.21875 -1.39063,0.4375 -0.5,0.35938 -0.5,0.90625 0,0.53125 0.40625,0.9375 0.40625,0.39063 1.01563,0.39063 0.70312,0 1.32812,-0.46875 0.46875,-0.34375 0.60938,-0.84375 0.0938,-0.32813 0.0938,-1.25 z m 9.4851,-5.03125 v 2.03125 h -1.75 v 3.90625 q 0,1.1875 0.0469,1.39062 0.0469,0.1875 0.21875,0.3125 0.1875,0.125 0.4375,0.125 0.35937,0 1.03125,-0.25 l 0.21875,2 q -0.89063,0.375 -2.01563,0.375 -0.70312,0 -1.26562,-0.23437 -0.54688,-0.23438 -0.8125,-0.59375 -0.25,-0.375 -0.34375,-1 -0.0938,-0.45313 -0.0938,-1.8125 v -4.21875 h -1.17188 v -2.03125 h 1.17188 v -1.92188 l 2.57812,-1.5 v 3.42188 z m 3.68146,2.95312 -2.32812,-0.42187 q 0.40625,-1.40625 1.35937,-2.07813 0.95313,-0.67187 2.84375,-0.67187 1.70313,0 2.54688,0.40625 0.84375,0.40625 1.17187,1.03125 0.34375,0.625 0.34375,2.28125 l -0.0156,3 q 0,1.26562 0.10937,1.875 0.125,0.60937 0.46875,1.29687 h -2.53125 q -0.10937,-0.25 -0.25,-0.75 -0.0625,-0.23437 -0.0938,-0.3125 -0.65625,0.64063 -1.40625,0.96875 -0.73437,0.3125 -1.59375,0.3125 -1.48437,0 -2.34375,-0.8125 -0.85937,-0.8125 -0.85937,-2.04687 0,-0.82813 0.39062,-1.46875 0.39063,-0.64063 1.09375,-0.96875 0.70313,-0.34375 2.03125,-0.60938 1.79688,-0.32812 2.48438,-0.625 v -0.25 q 0,-0.75 -0.35938,-1.0625 -0.35937,-0.3125 -1.375,-0.3125 -0.6875,0 -1.07812,0.28125 -0.375,0.26563 -0.60938,0.9375 z m 3.42188,2.07813 q -0.48438,0.15625 -1.5625,0.39062 -1.0625,0.21875 -1.39063,0.4375 -0.5,0.35938 -0.5,0.90625 0,0.53125 0.40625,0.9375 0.40625,0.39063 1.01563,0.39063 0.70312,0 1.32812,-0.46875 0.46875,-0.34375 0.60938,-0.84375 0.0938,-0.32813 0.0938,-1.25 z"
       fill-rule="nonzero"
       id="path29" />
    <path
       fill="#000000"
       d="m 637.4824,449.3882 1.65625,-0.14063 q 0.125,1 0.54687,1.64063 0.4375,0.64062 1.34375,1.04687 0.92188,0.39063 2.0625,0.39063 1,0 1.78125,-0.29688 0.78125,-0.29687 1.15625,-0.8125 0.375,-0.53125 0.375,-1.15625 0,-0.625 -0.375,-1.09375 -0.35937,-0.46875 -1.1875,-0.79687 -0.54687,-0.20313 -2.39062,-0.64063 -1.82813,-0.45312 -2.5625,-0.84375 -0.96875,-0.5 -1.4375,-1.23437 -0.46875,-0.75 -0.46875,-1.67188 0,-1 0.57812,-1.875 0.57813,-0.89062 1.67188,-1.34375 1.10937,-0.45312 2.45312,-0.45312 1.48438,0 2.60938,0.48437 1.14062,0.46875 1.75,1.40625 0.60937,0.92188 0.65625,2.09375 l -1.6875,0.125 q -0.14063,-1.26562 -0.9375,-1.90625 -0.78125,-0.65625 -2.3125,-0.65625 -1.60938,0 -2.34375,0.59375 -0.73438,0.59375 -0.73438,1.42188 0,0.71875 0.53125,1.17187 0.5,0.46875 2.65625,0.96875 2.15625,0.48438 2.95313,0.84375 1.17187,0.53125 1.71875,1.35938 0.5625,0.82812 0.5625,1.90625 0,1.0625 -0.60938,2.01562 -0.60937,0.9375 -1.75,1.46875 -1.14062,0.51563 -2.57812,0.51563 -1.8125,0 -3.04688,-0.53125 -1.21875,-0.53125 -1.92187,-1.59375 -0.6875,-1.0625 -0.71875,-2.40625 z m 19.14667,0.75 1.60937,0.21875 q -0.26562,1.65625 -1.35937,2.60937 -1.07813,0.9375 -2.67188,0.9375 -1.98437,0 -3.1875,-1.29687 -1.20312,-1.29688 -1.20312,-3.71875 0,-1.57813 0.51562,-2.75 0.51563,-1.17188 1.57813,-1.75 1.0625,-0.59375 2.3125,-0.59375 1.57812,0 2.57812,0.79687 1,0.79688 1.28125,2.26563 l -1.59375,0.23437 q -0.23437,-0.96875 -0.8125,-1.45312 -0.57812,-0.5 -1.39062,-0.5 -1.23438,0 -2.01563,0.89062 -0.78125,0.89063 -0.78125,2.8125 0,1.95313 0.75,2.84375 0.75,0.875 1.95313,0.875 0.96875,0 1.60937,-0.59375 0.65625,-0.59375 0.82813,-1.82812 z m 9.32812,2.35937 q -0.92187,0.76563 -1.76562,1.09375 -0.82813,0.3125 -1.79688,0.3125 -1.59375,0 -2.45312,-0.78125 -0.85938,-0.78125 -0.85938,-1.98437 0,-0.71875 0.32813,-1.29688 0.32812,-0.59375 0.84375,-0.9375 0.53125,-0.35937 1.1875,-0.54687 0.46875,-0.125 1.45312,-0.25 1.98438,-0.23438 2.92188,-0.5625 0.0156,-0.34375 0.0156,-0.42188 0,-1 -0.46875,-1.42187 -0.625,-0.54688 -1.875,-0.54688 -1.15625,0 -1.70312,0.40625 -0.54688,0.40625 -0.8125,1.42188 l -1.60938,-0.21875 q 0.21875,-1.01563 0.71875,-1.64063 0.5,-0.64062 1.45313,-0.98437 0.95312,-0.34375 2.1875,-0.34375 1.25,0 2.01562,0.29687 0.78125,0.28125 1.14063,0.73438 0.375,0.4375 0.51562,1.10937 0.0781,0.42188 0.0781,1.51563 v 2.1875 q 0,2.28125 0.10937,2.89062 0.10938,0.59375 0.40625,1.15625 h -1.70312 q -0.26563,-0.51562 -0.32813,-1.1875 z m -0.14062,-3.67187 q -0.89063,0.375 -2.67188,0.625 -1.01562,0.14062 -1.4375,0.32812 -0.42187,0.1875 -0.65625,0.53125 -0.21875,0.34375 -0.21875,0.78125 0,0.65625 0.5,1.09375 0.5,0.4375 1.45313,0.4375 0.9375,0 1.67187,-0.40625 0.75,-0.42187 1.09375,-1.14062 0.26563,-0.5625 0.26563,-1.64063 z m 4.15698,4.85937 V 440.3257 h 1.64062 v 13.35937 z m 10.50421,-1.1875 q -0.92187,0.76563 -1.76562,1.09375 -0.82813,0.3125 -1.79688,0.3125 -1.59375,0 -2.45312,-0.78125 -0.85938,-0.78125 -0.85938,-1.98437 0,-0.71875 0.32813,-1.29688 0.32812,-0.59375 0.84375,-0.9375 0.53125,-0.35937 1.1875,-0.54687 0.46875,-0.125 1.45312,-0.25 1.98438,-0.23438 2.92188,-0.5625 0.0156,-0.34375 0.0156,-0.42188 0,-1 -0.46875,-1.42187 -0.625,-0.54688 -1.875,-0.54688 -1.15625,0 -1.70312,0.40625 -0.54688,0.40625 -0.8125,1.42188 l -1.60938,-0.21875 q 0.21875,-1.01563 0.71875,-1.64063 0.5,-0.64062 1.45313,-0.98437 0.95312,-0.34375 2.1875,-0.34375 1.25,0 2.01562,0.29687 0.78125,0.28125 1.14063,0.73438 0.375,0.4375 0.51562,1.10937 0.0781,0.42188 0.0781,1.51563 v 2.1875 q 0,2.28125 0.10937,2.89062 0.10938,0.59375 0.40625,1.15625 h -1.70312 q -0.26563,-0.51562 -0.32813,-1.1875 z m -0.14062,-3.67187 q -0.89063,0.375 -2.67188,0.625 -1.01562,0.14062 -1.4375,0.32812 -0.42187,0.1875 -0.65625,0.53125 -0.21875,0.34375 -0.21875,0.78125 0,0.65625 0.5,1.09375 0.5,0.4375 1.45313,0.4375 0.9375,0 1.67187,-0.40625 0.75,-0.42187 1.09375,-1.14062 0.26563,-0.5625 0.26563,-1.64063 z m 4.18817,4.85937 v -9.67187 h 1.46875 v 1.46875 q 0.5625,-1.03125 1.03125,-1.35938 0.48437,-0.32812 1.0625,-0.32812 0.82812,0 1.6875,0.53125 l -0.5625,1.51562 q -0.60938,-0.35937 -1.20313,-0.35937 -0.54687,0 -0.96875,0.32812 -0.42187,0.32813 -0.60937,0.89063 -0.28125,0.875 -0.28125,1.92187 v 5.0625 z m 5.57208,-2.89062 1.625,-0.25 q 0.125,0.96875 0.75,1.5 0.625,0.51562 1.75,0.51562 1.125,0 1.67187,-0.45312 0.54688,-0.46875 0.54688,-1.09375 0,-0.54688 -0.48438,-0.875 -0.32812,-0.21875 -1.67187,-0.54688 -1.8125,-0.46875 -2.51563,-0.79687 -0.6875,-0.32813 -1.04687,-0.90625 -0.35938,-0.59375 -0.35938,-1.3125 0,-0.64063 0.29688,-1.1875 0.29687,-0.5625 0.8125,-0.92188 0.375,-0.28125 1.03125,-0.46875 0.67187,-0.20312 1.42187,-0.20312 1.14063,0 2,0.32812 0.85938,0.32813 1.26563,0.89063 0.42187,0.5625 0.57812,1.5 l -1.60937,0.21875 q -0.10938,-0.75 -0.64063,-1.17188 -0.51562,-0.42187 -1.46875,-0.42187 -1.14062,0 -1.625,0.375 -0.46875,0.375 -0.46875,0.875 0,0.3125 0.1875,0.57812 0.20313,0.26563 0.64063,0.4375 0.23437,0.0938 1.4375,0.42188 1.75,0.45312 2.4375,0.75 0.6875,0.29687 1.07812,0.85937 0.39063,0.5625 0.39063,1.40625 0,0.82813 -0.48438,1.54688 -0.46875,0.71875 -1.375,1.125 -0.90625,0.39062 -2.04687,0.39062 -1.875,0 -2.875,-0.78125 -0.98438,-0.78125 -1.25,-2.32812 z m 10.40625,2.89062 v -1.875 h 1.875 v 1.875 q 0,1.03125 -0.375,1.65625 -0.35938,0.64063 -1.15625,0.98438 l -0.45313,-0.70313 q 0.51563,-0.21875 0.76563,-0.67187 0.25,-0.4375 0.28125,-1.26563 z m 13.96033,0 -5.17188,-13.35937 h 1.92188 l 3.46875,9.70312 q 0.42187,1.17188 0.70312,2.1875 0.3125,-1.09375 0.71875,-2.1875 l 3.60938,-9.70312 h 1.79687 l -5.23437,13.35937 z m 14.02301,-3.10937 1.6875,0.20312 q -0.40625,1.48438 -1.48438,2.3125 -1.07812,0.8125 -2.76562,0.8125 -2.125,0 -3.375,-1.29687 -1.23438,-1.3125 -1.23438,-3.67188 0,-2.45312 1.25,-3.79687 1.26563,-1.34375 3.26563,-1.34375 1.9375,0 3.15625,1.32812 1.23437,1.3125 1.23437,3.70313 0,0.15625 0,0.4375 h -7.21875 q 0.0938,1.59375 0.90625,2.45312 0.8125,0.84375 2.01563,0.84375 0.90625,0 1.54687,-0.46875 0.64063,-0.48437 1.01563,-1.51562 z m -5.39063,-2.65625 h 5.40625 q -0.10937,-1.21875 -0.625,-1.82813 -0.78125,-0.95312 -2.03125,-0.95312 -1.125,0 -1.90625,0.76562 -0.76562,0.75 -0.84375,2.01563 z m 15.45386,2.21875 1.60937,0.21875 q -0.26562,1.65625 -1.35937,2.60937 -1.07813,0.9375 -2.67188,0.9375 -1.98437,0 -3.1875,-1.29687 -1.20312,-1.29688 -1.20312,-3.71875 0,-1.57813 0.51562,-2.75 0.51563,-1.17188 1.57813,-1.75 1.0625,-0.59375 2.3125,-0.59375 1.57812,0 2.57812,0.79687 1,0.79688 1.28125,2.26563 l -1.59375,0.23437 q -0.23437,-0.96875 -0.8125,-1.45312 -0.57812,-0.5 -1.39062,-0.5 -1.23438,0 -2.01563,0.89062 -0.78125,0.89063 -0.78125,2.8125 0,1.95313 0.75,2.84375 0.75,0.875 1.95313,0.875 0.96875,0 1.60937,-0.59375 0.65625,-0.59375 0.82813,-1.82812 z m 6.59375,2.07812 0.23437,1.45313 q -0.6875,0.14062 -1.23437,0.14062 -0.89063,0 -1.39063,-0.28125 -0.48437,-0.28125 -0.6875,-0.73437 -0.20312,-0.46875 -0.20312,-1.9375 v -5.57813 h -1.20313 v -1.26562 h 1.20313 v -2.39063 l 1.625,-0.98437 v 3.375 h 1.65625 v 1.26562 h -1.65625 v 5.67188 q 0,0.6875 0.0781,0.89062 0.0938,0.20313 0.28125,0.32813 0.20313,0.10937 0.57813,0.10937 0.26562,0 0.71875,-0.0625 z m 0.99579,-3.375 q 0,-2.6875 1.48437,-3.96875 1.25,-1.07812 3.04688,-1.07812 2,0 3.26562,1.3125 1.26563,1.29687 1.26563,3.60937 0,1.85938 -0.5625,2.9375 -0.5625,1.0625 -1.64063,1.65625 -1.0625,0.59375 -2.32812,0.59375 -2.03125,0 -3.28125,-1.29687 -1.25,-1.3125 -1.25,-3.76563 z m 1.6875,0 q 0,1.85938 0.79687,2.79688 0.8125,0.92187 2.04688,0.92187 1.21875,0 2.03125,-0.92187 0.8125,-0.9375 0.8125,-2.84375 0,-1.79688 -0.8125,-2.71875 -0.8125,-0.92188 -2.03125,-0.92188 -1.23438,0 -2.04688,0.92188 -0.79687,0.90625 -0.79687,2.76562 z m 9.28198,4.84375 v -9.67187 h 1.46875 v 1.46875 q 0.5625,-1.03125 1.03125,-1.35938 0.48437,-0.32812 1.0625,-0.32812 0.82812,0 1.6875,0.53125 l -0.5625,1.51562 q -0.60938,-0.35937 -1.20313,-0.35937 -0.54687,0 -0.96875,0.32812 -0.42187,0.32813 -0.60937,0.89063 -0.28125,0.875 -0.28125,1.92187 v 5.0625 z m 5.57202,-2.89062 1.625,-0.25 q 0.125,0.96875 0.75,1.5 0.625,0.51562 1.75,0.51562 1.125,0 1.67188,-0.45312 0.54687,-0.46875 0.54687,-1.09375 0,-0.54688 -0.48437,-0.875 -0.32813,-0.21875 -1.67188,-0.54688 -1.8125,-0.46875 -2.51562,-0.79687 -0.6875,-0.32813 -1.04688,-0.90625 -0.35937,-0.59375 -0.35937,-1.3125 0,-0.64063 0.29687,-1.1875 0.29688,-0.5625 0.8125,-0.92188 0.375,-0.28125 1.03125,-0.46875 0.67188,-0.20312 1.42188,-0.20312 1.14062,0 2,0.32812 0.85937,0.32813 1.26562,0.89063 0.42188,0.5625 0.57813,1.5 l -1.60938,0.21875 q -0.10937,-0.75 -0.64062,-1.17188 -0.51563,-0.42187 -1.46875,-0.42187 -1.14063,0 -1.625,0.375 -0.46875,0.375 -0.46875,0.875 0,0.3125 0.1875,0.57812 0.20312,0.26563 0.64062,0.4375 0.23438,0.0938 1.4375,0.42188 1.75,0.45312 2.4375,0.75 0.6875,0.29687 1.07813,0.85937 0.39062,0.5625 0.39062,1.40625 0,0.82813 -0.48437,1.54688 -0.46875,0.71875 -1.375,1.125 -0.90625,0.39062 -2.04688,0.39062 -1.875,0 -2.875,-0.78125 -0.98437,-0.78125 -1.25,-2.32812 z m 15.62079,2.89062 v -1.875 h 1.875 v 1.875 z m 5.18335,0 v -1.875 h 1.875 v 1.875 z m 5.18329,0 v -1.875 h 1.875 v 1.875 z"
       fill-rule="nonzero"
       id="path31" />
    <path
       fill="#000000"
       fill-opacity="0"
       d="m 530.7848,283.90027 -17.07086,127.8425"
       fill-rule="evenodd"
       id="path33" />
    <path
       stroke="#000000"
       stroke-width="1"
       stroke-linejoin="round"
       stroke-linecap="butt"
       d="m 530.7848,283.90027 -17.07086,127.8425"
       fill-rule="evenodd"
       id="path35" />
    <path
       fill="#000000"
       fill-opacity="0"
       d="m 530.7848,283.90027 183.62201,127.8425"
       fill-rule="evenodd"
       id="path37" />
    <path
       stroke="#000000"
       stroke-width="1"
       stroke-linejoin="round"
       stroke-linecap="butt"
       d="m 530.7848,283.90027 183.62201,127.8425"
       fill-rule="evenodd"
       id="path39" />
    <path
       fill="#b7b7b7"
       d="m 339.75592,495.59055 h 173.4173 v 42.92917 h -173.4173 z"
       fill-rule="evenodd"
       id="path41" />
    <path
       stroke="#000000"
       stroke-width="1"
       stroke-linejoin="round"
       stroke-linecap="butt"
       d="m 339.75592,495.59055 h 173.4173 v 42.92917 h -173.4173 z"
       fill-rule="evenodd"
       id="path43" />
    <path
       fill="#000000"
       d="m 354.72934,523.9751 v -13.35934 h 4.32812 q 2.45313,0 3.20313,0.20312 1.14062,0.29688 1.92187,1.31247 0.78125,1 0.78125,2.59375 0,1.23437 -0.45312,2.07812 -0.45313,0.82813 -1.14063,1.3125 -0.6875,0.46875 -1.39062,0.625 -0.96875,0.20313 -2.79688,0.20313 h -1.76562 v 5.03125 z m 2.6875,-11.09375 v 3.78125 h 1.48437 q 1.59375,0 2.125,-0.20313 0.54688,-0.20312 0.84375,-0.65625 0.3125,-0.45312 0.3125,-1.03125 0,-0.73437 -0.4375,-1.20312 -0.42187,-0.48438 -1.07812,-0.59375 -0.48438,-0.0938 -1.9375,-0.0938 z m 9.1467,6.125 q 0,-1.28125 0.625,-2.46875 0.625,-1.20313 1.78125,-1.82813 1.15625,-0.625 2.57812,-0.625 2.1875,0 3.59375,1.42188 1.40625,1.42187 1.40625,3.60937 0,2.1875 -1.42187,3.64063 -1.42188,1.4375 -3.5625,1.4375 -1.32813,0 -2.54688,-0.59375 -1.20312,-0.60938 -1.82812,-1.76563 -0.625,-1.17187 -0.625,-2.82812 z m 2.625,0.125 q 0,1.45312 0.67187,2.21875 0.6875,0.75 1.6875,0.75 1,0 1.67188,-0.75 0.6875,-0.76563 0.6875,-2.23438 0,-1.42187 -0.6875,-2.1875 -0.67188,-0.76562 -1.67188,-0.76562 -1,0 -1.6875,0.76562 -0.67187,0.76563 -0.67187,2.20313 z m 9.36474,-6.14063 v -2.37496 h 2.5625 v 2.37496 z m 0,10.98438 v -9.67188 h 2.5625 v 9.67188 z m 13.98017,0 h -2.5625 v -4.9375 q 0,-1.5625 -0.17188,-2.01563 -0.15625,-0.46875 -0.53125,-0.71875 -0.35937,-0.26562 -0.875,-0.26562 -0.67187,0 -1.20312,0.375 -0.53125,0.35937 -0.73438,0.96875 -0.1875,0.59375 -0.1875,2.21875 v 4.375 h -2.54687 v -9.67188 h 2.375 v 1.42188 q 1.26562,-1.64063 3.1875,-1.64063 0.84375,0 1.54687,0.3125 0.70313,0.29688 1.0625,0.78125 0.35938,0.46875 0.5,1.07813 0.14063,0.59375 0.14063,1.70312 z m 7.03662,-9.67188 v 2.03125 h -1.75 v 3.90625 q 0,1.1875 0.0469,1.39063 0.0469,0.1875 0.21875,0.3125 0.1875,0.125 0.4375,0.125 0.35938,0 1.03125,-0.25 l 0.21875,2 q -0.89062,0.375 -2.01562,0.375 -0.70313,0 -1.26563,-0.23438 -0.54687,-0.23437 -0.8125,-0.59375 -0.25,-0.375 -0.34375,-1 -0.0938,-0.45312 -0.0938,-1.8125 v -4.21875 h -1.17187 v -2.03125 h 1.17187 v -1.92187 l 2.57813,-1.49997 v 3.42184 z m 13.83768,9.67188 h -2.9375 l -1.17188,-3.03125 h -5.32812 l -1.10938,3.03125 h -2.85937 l 5.20312,-13.35934 h 2.84375 z m -4.96875,-5.28125 -1.84375,-4.95313 -1.79688,4.95313 z m 8.8323,5.28125 h -2.5625 v -9.67188 h 2.375 v 1.375 q 0.60938,-0.98437 1.09375,-1.28125 0.48438,-0.3125 1.10938,-0.3125 0.875,0 1.6875,0.48438 l -0.79688,2.23437 q -0.64062,-0.42187 -1.20312,-0.42187 -0.53125,0 -0.90625,0.29687 -0.375,0.29688 -0.59375,1.07813 -0.20313,0.76562 -0.20313,3.23437 z m 7.26029,0 h -2.5625 v -9.67188 h 2.375 v 1.375 q 0.60937,-0.98437 1.09375,-1.28125 0.48437,-0.3125 1.10937,-0.3125 0.875,0 1.6875,0.48438 l -0.79687,2.23437 q -0.64063,-0.42187 -1.20313,-0.42187 -0.53125,0 -0.90625,0.29687 -0.375,0.29688 -0.59375,1.07813 -0.20312,0.76562 -0.20312,3.23437 z m 6.71338,-6.71875 -2.32813,-0.42188 q 0.40625,-1.40625 1.35938,-2.07812 0.95312,-0.67188 2.84375,-0.67188 1.70312,0 2.54687,0.40625 0.84375,0.40625 1.17188,1.03125 0.34375,0.625 0.34375,2.28125 l -0.0156,3 q 0,1.26563 0.10938,1.875 0.125,0.60938 0.46875,1.29688 h -2.53125 q -0.10938,-0.25 -0.25,-0.75 -0.0625,-0.23438 -0.0938,-0.3125 -0.65625,0.64062 -1.40625,0.96875 -0.73438,0.3125 -1.59375,0.3125 -1.48438,0 -2.34375,-0.8125 -0.85938,-0.8125 -0.85938,-2.04688 0,-0.82812 0.39063,-1.46875 0.39062,-0.64062 1.09375,-0.96875 0.70312,-0.34375 2.03125,-0.60937 1.79687,-0.32813 2.48437,-0.625 v -0.25 q 0,-0.75 -0.35937,-1.0625 -0.35938,-0.3125 -1.375,-0.3125 -0.6875,0 -1.07813,0.28125 -0.375,0.26562 -0.60937,0.9375 z m 3.42187,2.07812 q -0.48437,0.15625 -1.5625,0.39063 -1.0625,0.21875 -1.39062,0.4375 -0.5,0.35937 -0.5,0.90625 0,0.53125 0.40625,0.9375 0.40625,0.39062 1.01562,0.39062 0.70313,0 1.32813,-0.46875 0.46875,-0.34375 0.60937,-0.84375 0.0938,-0.32812 0.0938,-1.25 z m 3.82886,-5.03125 h 2.71875 l 2.32812,6.85938 2.25,-6.85938 h 2.65625 l -3.42187,9.3125 -0.60938,1.6875 q -0.32812,0.84375 -0.64062,1.28125 -0.3125,0.45313 -0.70313,0.71875 -0.39062,0.28125 -0.96875,0.4375 -0.57812,0.15625 -1.3125,0.15625 -0.73437,0 -1.45312,-0.15625 l -0.21875,-2 q 0.59375,0.125 1.07812,0.125 0.89063,0 1.3125,-0.53125 0.4375,-0.51562 0.67188,-1.32812 z m 11.64132,9.67188 v -13.35934 h 2.625 l 5.45313,8.92184 v -8.92184 h 2.51562 v 13.35934 h -2.70312 l -5.39063,-8.70313 v 8.70313 z m 15.33234,-6.71875 -2.32812,-0.42188 q 0.40625,-1.40625 1.35937,-2.07812 0.95313,-0.67188 2.84375,-0.67188 1.70313,0 2.54688,0.40625 0.84375,0.40625 1.17187,1.03125 0.34375,0.625 0.34375,2.28125 l -0.0156,3 q 0,1.26563 0.10937,1.875 0.125,0.60938 0.46875,1.29688 h -2.53125 q -0.10937,-0.25 -0.25,-0.75 -0.0625,-0.23438 -0.0938,-0.3125 -0.65625,0.64062 -1.40625,0.96875 -0.73437,0.3125 -1.59375,0.3125 -1.48437,0 -2.34375,-0.8125 -0.85937,-0.8125 -0.85937,-2.04688 0,-0.82812 0.39062,-1.46875 0.39063,-0.64062 1.09375,-0.96875 0.70313,-0.34375 2.03125,-0.60937 1.79688,-0.32813 2.48438,-0.625 v -0.25 q 0,-0.75 -0.35938,-1.0625 -0.35937,-0.3125 -1.375,-0.3125 -0.6875,0 -1.07812,0.28125 -0.375,0.26562 -0.60938,0.9375 z m 3.42188,2.07812 q -0.48438,0.15625 -1.5625,0.39063 -1.0625,0.21875 -1.39063,0.4375 -0.5,0.35937 -0.5,0.90625 0,0.53125 0.40625,0.9375 0.40625,0.39062 1.01563,0.39062 0.70312,0 1.32812,-0.46875 0.46875,-0.34375 0.60938,-0.84375 0.0938,-0.32812 0.0938,-1.25 z m 4.84445,-5.03125 h 2.35937 v 1.3125 q 1.26563,-1.53125 3.01563,-1.53125 0.9375,0 1.60937,0.39063 0.6875,0.375 1.125,1.14062 0.64063,-0.76562 1.375,-1.14062 0.75,-0.39063 1.57813,-0.39063 1.0625,0 1.79687,0.4375 0.75,0.42188 1.10938,1.26563 0.26562,0.625 0.26562,2 v 6.1875 h -2.5625 v -5.53125 q 0,-1.4375 -0.26562,-1.85938 -0.34375,-0.54687 -1.09375,-0.54687 -0.53125,0 -1.01563,0.32812 -0.46875,0.32813 -0.67187,0.96875 -0.20313,0.625 -0.20313,2 v 4.64063 h -2.5625 v -5.29688 q 0,-1.42187 -0.14062,-1.82812 -0.14063,-0.40625 -0.42188,-0.60938 -0.28125,-0.20312 -0.78125,-0.20312 -0.59375,0 -1.0625,0.32812 -0.46875,0.3125 -0.6875,0.92188 -0.20312,0.59375 -0.20312,1.98437 v 4.70313 h -2.5625 z m 22.38528,6.59375 2.54688,0.42188 q -0.48438,1.40625 -1.54688,2.14062 -1.0625,0.73438 -2.65625,0.73438 -2.51562,0 -3.73437,-1.65625 -0.95313,-1.3125 -0.95313,-3.32813 0,-2.40625 1.25,-3.76562 1.26563,-1.35938 3.1875,-1.35938 2.15625,0 3.40625,1.42188 1.25,1.42187 1.1875,4.375 h -6.40625 q 0.0312,1.14062 0.60938,1.78125 0.59375,0.625 1.48437,0.625 0.59375,0 1,-0.32813 0.42188,-0.32812 0.625,-1.0625 z m 0.15625,-2.59375 q -0.0312,-1.10937 -0.57812,-1.6875 -0.54688,-0.57812 -1.32813,-0.57812 -0.84375,0 -1.39062,0.60937 -0.54688,0.60938 -0.53125,1.65625 z"
       fill-rule="nonzero"
       id="path45" />
    <path
       fill="#000000"
       fill-opacity="0"
       d="m 535.91077,488.15747 h 62.39368 v 57.79529 h -62.39368 z"
       fill-rule="evenodd"
       id="path47" />
    <path
       fill="#000000"
       d="m 547.78577,535.5575 v -5.48437 h 5.48437 v 5.48437 z m 11.11328,0 v -5.48437 h 5.48438 v 5.48437 z m 11.11328,0 v -5.48437 h 5.48438 v 5.48437 z"
       fill-rule="nonzero"
       id="path49" />
    <path
       fill="#cccccc"
       d="m 652.19946,495.59055 h 160.28345 v 42.92917 H 652.19946 Z"
       fill-rule="evenodd"
       id="path51" />
    <path
       stroke="#000000"
       stroke-width="1"
       stroke-linejoin="round"
       stroke-linecap="butt"
       d="m 652.19946,495.59055 h 160.28345 v 42.92917 H 652.19946 Z"
       fill-rule="evenodd"
       id="path53" />
    <path
       fill="#000000"
       d="m 675.36096,519.06885 2.60937,0.82812 q -0.59375,2.1875 -2,3.25 -1.39062,1.0625 -3.54687,1.0625 -2.65625,0 -4.375,-1.8125 -1.70313,-1.82812 -1.70313,-4.98437 0,-3.32813 1.71875,-5.17188 1.71875,-1.84371 4.51563,-1.84371 2.45312,0 3.98437,1.4375 0.92188,0.85934 1.375,2.46871 l -2.67187,0.64063 q -0.23438,-1.04688 -0.98438,-1.64063 -0.75,-0.60937 -1.82812,-0.60937 -1.48438,0 -2.42188,1.07812 -0.92187,1.0625 -0.92187,3.4375 0,2.53125 0.90625,3.60938 0.92187,1.07812 2.375,1.07812 1.07812,0 1.84375,-0.67187 0.78125,-0.6875 1.125,-2.15625 z m 10.50421,1.82812 2.54688,0.42188 q -0.48438,1.40625 -1.54688,2.14062 -1.0625,0.73438 -2.65625,0.73438 -2.51562,0 -3.73437,-1.65625 -0.95313,-1.3125 -0.95313,-3.32813 0,-2.40625 1.25,-3.76562 1.26563,-1.35938 3.1875,-1.35938 2.15625,0 3.40625,1.42188 1.25,1.42187 1.1875,4.375 h -6.40625 q 0.0312,1.14062 0.60938,1.78125 0.59375,0.625 1.48437,0.625 0.59375,0 1,-0.32813 0.42188,-0.32812 0.625,-1.0625 z m 0.15625,-2.59375 q -0.0312,-1.10937 -0.57812,-1.6875 -0.54688,-0.57812 -1.32813,-0.57812 -0.84375,0 -1.39062,0.60937 -0.54688,0.60938 -0.53125,1.65625 z m 4.62573,5.67188 v -13.35934 h 2.5625 v 13.35934 z m 5.18329,0 v -13.35934 h 2.5625 v 13.35934 z m 17.24579,0 h -2.9375 l -1.17187,-3.03125 h -5.32813 l -1.10937,3.03125 h -2.85938 l 5.20313,-13.35934 h 2.84375 z m -4.96875,-5.28125 -1.84375,-4.95313 -1.79687,4.95313 z m 8.83234,5.28125 h -2.5625 v -9.67188 h 2.375 v 1.375 q 0.60937,-0.98437 1.09375,-1.28125 0.48437,-0.3125 1.10937,-0.3125 0.875,0 1.6875,0.48438 l -0.79687,2.23437 q -0.64063,-0.42187 -1.20313,-0.42187 -0.53125,0 -0.90625,0.29687 -0.375,0.29688 -0.59375,1.07813 -0.20312,0.76562 -0.20312,3.23437 z m 7.26025,0 h -2.5625 v -9.67188 h 2.375 v 1.375 q 0.60938,-0.98437 1.09375,-1.28125 0.48438,-0.3125 1.10938,-0.3125 0.875,0 1.6875,0.48438 l -0.79688,2.23437 q -0.64062,-0.42187 -1.20312,-0.42187 -0.53125,0 -0.90625,0.29687 -0.375,0.29688 -0.59375,1.07813 -0.20313,0.76562 -0.20313,3.23437 z m 6.71338,-6.71875 -2.32812,-0.42188 q 0.40625,-1.40625 1.35937,-2.07812 0.95313,-0.67188 2.84375,-0.67188 1.70313,0 2.54688,0.40625 0.84375,0.40625 1.17187,1.03125 0.34375,0.625 0.34375,2.28125 l -0.0156,3 q 0,1.26563 0.10937,1.875 0.125,0.60938 0.46875,1.29688 h -2.53125 q -0.10937,-0.25 -0.25,-0.75 -0.0625,-0.23438 -0.0938,-0.3125 -0.65625,0.64062 -1.40625,0.96875 -0.73437,0.3125 -1.59375,0.3125 -1.48437,0 -2.34375,-0.8125 -0.85937,-0.8125 -0.85937,-2.04688 0,-0.82812 0.39062,-1.46875 0.39063,-0.64062 1.09375,-0.96875 0.70313,-0.34375 2.03125,-0.60937 1.79688,-0.32813 2.48438,-0.625 v -0.25 q 0,-0.75 -0.35938,-1.0625 -0.35937,-0.3125 -1.375,-0.3125 -0.6875,0 -1.07812,0.28125 -0.375,0.26562 -0.60938,0.9375 z m 3.42188,2.07812 q -0.48438,0.15625 -1.5625,0.39063 -1.0625,0.21875 -1.39063,0.4375 -0.5,0.35937 -0.5,0.90625 0,0.53125 0.40625,0.9375 0.40625,0.39062 1.01563,0.39062 0.70312,0 1.32812,-0.46875 0.46875,-0.34375 0.60938,-0.84375 0.0938,-0.32812 0.0938,-1.25 z m 3.82885,-5.03125 h 2.71875 l 2.32813,6.85938 2.25,-6.85938 h 2.65625 l -3.42188,9.3125 -0.60937,1.6875 q -0.32813,0.84375 -0.64063,1.28125 -0.3125,0.45313 -0.70312,0.71875 -0.39063,0.28125 -0.96875,0.4375 -0.57813,0.15625 -1.3125,0.15625 -0.73438,0 -1.45313,-0.15625 l -0.21875,-2 q 0.59375,0.125 1.07813,0.125 0.89062,0 1.3125,-0.53125 0.4375,-0.51562 0.67187,-1.32812 z m 11.64136,9.67188 v -13.35934 h 2.625 l 5.45312,8.92184 v -8.92184 h 2.51563 v 13.35934 h -2.70313 l -5.39062,-8.70313 v 8.70313 z m 15.33234,-6.71875 -2.32813,-0.42188 q 0.40625,-1.40625 1.35938,-2.07812 0.95312,-0.67188 2.84375,-0.67188 1.70312,0 2.54687,0.40625 0.84375,0.40625 1.17188,1.03125 0.34375,0.625 0.34375,2.28125 l -0.0156,3 q 0,1.26563 0.10938,1.875 0.125,0.60938 0.46875,1.29688 h -2.53125 q -0.10938,-0.25 -0.25,-0.75 -0.0625,-0.23438 -0.0938,-0.3125 -0.65625,0.64062 -1.40625,0.96875 -0.73438,0.3125 -1.59375,0.3125 -1.48438,0 -2.34375,-0.8125 -0.85938,-0.8125 -0.85938,-2.04688 0,-0.82812 0.39063,-1.46875 0.39062,-0.64062 1.09375,-0.96875 0.70312,-0.34375 2.03125,-0.60937 1.79687,-0.32813 2.48437,-0.625 v -0.25 q 0,-0.75 -0.35937,-1.0625 -0.35938,-0.3125 -1.375,-0.3125 -0.6875,0 -1.07813,0.28125 -0.375,0.26562 -0.60937,0.9375 z m 3.42187,2.07812 q -0.48437,0.15625 -1.5625,0.39063 -1.0625,0.21875 -1.39062,0.4375 -0.5,0.35937 -0.5,0.90625 0,0.53125 0.40625,0.9375 0.40625,0.39062 1.01562,0.39062 0.70313,0 1.32813,-0.46875 0.46875,-0.34375 0.60937,-0.84375 0.0938,-0.32812 0.0938,-1.25 z m 4.84442,-5.03125 h 2.35938 v 1.3125 q 1.26562,-1.53125 3.01562,-1.53125 0.9375,0 1.60938,0.39063 0.6875,0.375 1.125,1.14062 0.64062,-0.76562 1.375,-1.14062 0.75,-0.39063 1.57812,-0.39063 1.0625,0 1.79688,0.4375 0.75,0.42188 1.10937,1.26563 0.26563,0.625 0.26563,2 v 6.1875 h -2.5625 v -5.53125 q 0,-1.4375 -0.26563,-1.85938 -0.34375,-0.54687 -1.09375,-0.54687 -0.53125,0 -1.01562,0.32812 -0.46875,0.32813 -0.67188,0.96875 -0.20312,0.625 -0.20312,2 v 4.64063 h -2.5625 v -5.29688 q 0,-1.42187 -0.14063,-1.82812 -0.14062,-0.40625 -0.42187,-0.60938 -0.28125,-0.20312 -0.78125,-0.20312 -0.59375,0 -1.0625,0.32812 -0.46875,0.3125 -0.6875,0.92188 -0.20313,0.59375 -0.20313,1.98437 v 4.70313 h -2.5625 z m 22.38532,6.59375 2.54687,0.42188 q -0.48437,1.40625 -1.54687,2.14062 -1.0625,0.73438 -2.65625,0.73438 -2.51563,0 -3.73438,-1.65625 -0.95312,-1.3125 -0.95312,-3.32813 0,-2.40625 1.25,-3.76562 1.26562,-1.35938 3.1875,-1.35938 2.15625,0 3.40625,1.42188 1.25,1.42187 1.1875,4.375 h -6.40625 q 0.0312,1.14062 0.60937,1.78125 0.59375,0.625 1.48438,0.625 0.59375,0 1,-0.32813 0.42187,-0.32812 0.625,-1.0625 z m 0.15625,-2.59375 q -0.0312,-1.10937 -0.57813,-1.6875 -0.54687,-0.57812 -1.32812,-0.57812 -0.84375,0 -1.39063,0.60937 -0.54687,0.60938 -0.53125,1.65625 z"
       fill-rule="nonzero"
       id="path55" />
    <path
       fill="#000000"
       fill-opacity="0"
       d="m 513.7034,459.7966 -87.24411,35.77951"
       fill-rule="evenodd"
       id="path57" />
    <path
       stroke="#000000"
       stroke-width="1"
       stroke-linejoin="round"
       stroke-linecap="butt"
       d="m 513.7034,459.7966 -87.24411,35.77951"
       fill-rule="evenodd"
       id="path59" />
    <path
       fill="#000000"
       fill-opacity="0"
       d="m 513.7034,459.7966 53.4173,28.34644"
       fill-rule="evenodd"
       id="path61" />
    <path
       stroke="#000000"
       stroke-width="1"
       stroke-linejoin="round"
       stroke-linecap="butt"
       d="m 513.7034,459.7966 53.4173,28.34644"
       fill-rule="evenodd"
       id="path63" />
    <path
       fill="#000000"
       fill-opacity="0"
       d="m 714.40155,459.7966 17.95276,35.77951"
       fill-rule="evenodd"
       id="path65" />
    <path
       stroke="#000000"
       stroke-width="1"
       stroke-linejoin="round"
       stroke-linecap="butt"
       d="m 714.40155,459.7966 17.95276,35.77951"
       fill-rule="evenodd"
       id="path67" />
    <path
       fill="#000000"
       fill-opacity="0"
       d="m 829.18896,488.15747 h 62.39374 v 57.79529 h -62.39374 z"
       fill-rule="evenodd"
       id="path69" />
    <path
       fill="#000000"
       d="m 841.06396,535.5575 v -5.48437 h 5.48437 v 5.48437 z m 11.11328,0 v -5.48437 h 5.48438 v 5.48437 z m 11.11328,0 v -5.48437 h 5.48438 v 5.48437 z"
       fill-rule="nonzero"
       id="path71" />
    <path
       fill="#000000"
       fill-opacity="0"
       d="M 714.40155,459.7966 860.3858,488.14304"
       fill-rule="evenodd"
       id="path73" />
    <path
       stroke="#000000"
       stroke-width="1"
       stroke-linejoin="round"
       stroke-linecap="butt"
       d="M 714.40155,459.7966 860.3858,488.14304"
       fill-rule="evenodd"
       id="path75" />
    <path
       fill="#cfe2f3"
       d="m 219.87138,419.74426 v 0 c 0,-4.42416 3.5865,-8.01068 8.01067,-8.01068 H 396.8371 c 2.12457,0 4.16211,0.84399 5.66439,2.34628 1.50229,1.50229 2.34629,3.53983 2.34629,5.6644 v 32.04166 c 0,4.42416 -3.58652,8.01068 -8.01068,8.01068 H 227.88205 v 0 c -4.42417,0 -8.01067,-3.58652 -8.01067,-8.01068 z"
       fill-rule="evenodd"
       id="path77" />
    <path
       stroke="#000000"
       stroke-width="1"
       stroke-linejoin="round"
       stroke-linecap="butt"
       d="m 219.87138,419.74426 v 0 c 0,-4.42416 3.5865,-8.01068 8.01067,-8.01068 H 396.8371 c 2.12457,0 4.16211,0.84399 5.66439,2.34628 1.50229,1.50229 2.34629,3.53983 2.34629,5.6644 v 32.04166 c 0,4.42416 -3.58652,8.01068 -8.01068,8.01068 H 227.88205 v 0 c -4.42417,0 -8.01067,-3.58652 -8.01067,-8.01068 z"
       fill-rule="evenodd"
       id="path79" />
    <path
       fill="#000000"
       d="m 271.7489,431.6851 v -13.35938 h 9.15625 v 2.26563 h -6.45313 v 3.15625 h 5.5625 v 2.26562 h -5.5625 v 5.67188 z m 11.36475,-10.98438 v -2.375 h 2.5625 v 2.375 z m 0,10.98438 v -9.67188 h 2.5625 v 9.67188 z m 10.77704,-3.07813 2.54687,0.42188 q -0.48437,1.40625 -1.54687,2.14062 -1.0625,0.73438 -2.65625,0.73438 -2.51563,0 -3.73438,-1.65625 -0.95312,-1.3125 -0.95312,-3.32813 0,-2.40625 1.25,-3.76562 1.26562,-1.35938 3.1875,-1.35938 2.15625,0 3.40625,1.42188 1.25,1.42187 1.1875,4.375 h -6.40625 q 0.0312,1.14062 0.60937,1.78125 0.59375,0.625 1.48438,0.625 0.59375,0 1,-0.32813 0.42187,-0.32812 0.625,-1.0625 z m 0.15625,-2.59375 q -0.0312,-1.10937 -0.57813,-1.6875 -0.54687,-0.57812 -1.32812,-0.57812 -0.84375,0 -1.39063,0.60937 -0.54687,0.60938 -0.53125,1.65625 z m 4.62573,5.67188 v -13.35938 h 2.5625 v 13.35938 z m 14.05829,0 h -2.39063 v -1.42188 q -0.59375,0.82813 -1.40625,1.23438 -0.79687,0.40625 -1.60937,0.40625 -1.67188,0 -2.85938,-1.34375 -1.1875,-1.34375 -1.1875,-3.75 0,-2.45313 1.15625,-3.73438 1.15625,-1.28125 2.92188,-1.28125 1.625,0 2.8125,1.34375 v -4.8125 h 2.5625 z m -6.84375,-5.04688 q 0,1.54688 0.4375,2.23438 0.60937,1.01562 1.71875,1.01562 0.89062,0 1.5,-0.75 0.625,-0.76562 0.625,-2.25 0,-1.67187 -0.60938,-2.40625 -0.59375,-0.73437 -1.53125,-0.73437 -0.90625,0 -1.53125,0.73437 -0.60937,0.71875 -0.60937,2.15625 z m 9.36474,-8.3125 h 4.9375 q 1.65625,0 2.53125,0.26563 1.1875,0.34375 2.01563,1.23437 0.84375,0.875 1.28125,2.15625 0.4375,1.28125 0.4375,3.15625 0,1.64063 -0.40625,2.84375 -0.5,1.45313 -1.4375,2.35938 -0.70313,0.67187 -1.89063,1.0625 -0.89062,0.28125 -2.39062,0.28125 h -5.07813 z m 2.70313,2.26563 v 8.84375 h 2.01562 q 1.125,0 1.625,-0.125 0.65625,-0.17188 1.07813,-0.5625 0.4375,-0.39063 0.70312,-1.28125 0.28125,-0.90625 0.28125,-2.45313 0,-1.54687 -0.28125,-2.375 -0.26562,-0.82812 -0.76562,-1.28125 -0.48438,-0.46875 -1.23438,-0.64062 -0.5625,-0.125 -2.21875,-0.125 z m 12.67605,4.375 -2.32812,-0.42188 q 0.40625,-1.40625 1.35937,-2.07812 0.95313,-0.67188 2.84375,-0.67188 1.70313,0 2.54688,0.40625 0.84375,0.40625 1.17187,1.03125 0.34375,0.625 0.34375,2.28125 l -0.0156,3 q 0,1.26563 0.10937,1.875 0.125,0.60938 0.46875,1.29688 h -2.53125 q -0.10937,-0.25 -0.25,-0.75 -0.0625,-0.23438 -0.0938,-0.3125 -0.65625,0.64062 -1.40625,0.96875 -0.73437,0.3125 -1.59375,0.3125 -1.48437,0 -2.34375,-0.8125 -0.85937,-0.8125 -0.85937,-2.04688 0,-0.82812 0.39062,-1.46875 0.39063,-0.64062 1.09375,-0.96875 0.70313,-0.34375 2.03125,-0.60937 1.79688,-0.32813 2.48438,-0.625 v -0.25 q 0,-0.75 -0.35938,-1.0625 -0.35937,-0.3125 -1.375,-0.3125 -0.6875,0 -1.07812,0.28125 -0.375,0.26562 -0.60938,0.9375 z m 3.42188,2.07812 q -0.48438,0.15625 -1.5625,0.39063 -1.0625,0.21875 -1.39063,0.4375 -0.5,0.35937 -0.5,0.90625 0,0.53125 0.40625,0.9375 0.40625,0.39062 1.01563,0.39062 0.70312,0 1.32812,-0.46875 0.46875,-0.34375 0.60938,-0.84375 0.0938,-0.32812 0.0938,-1.25 z m 9.48511,-5.03125 v 2.03125 h -1.75 v 3.90625 q 0,1.1875 0.0469,1.39063 0.0469,0.1875 0.21875,0.3125 0.1875,0.125 0.4375,0.125 0.35938,0 1.03125,-0.25 l 0.21875,2 q -0.89062,0.375 -2.01562,0.375 -0.70313,0 -1.26563,-0.23438 -0.54687,-0.23437 -0.8125,-0.59375 -0.25,-0.375 -0.34375,-1 -0.0938,-0.45312 -0.0938,-1.8125 v -4.21875 h -1.17187 v -2.03125 h 1.17187 v -1.92187 l 2.57813,-1.5 v 3.42187 z m 3.68142,2.95313 -2.32812,-0.42188 q 0.40625,-1.40625 1.35937,-2.07812 0.95313,-0.67188 2.84375,-0.67188 1.7031,0 2.54685,0.40625 0.84375,0.40625 1.17187,1.03125 0.34375,0.625 0.34375,2.28125 l -0.0156,3 q 0,1.26563 0.10937,1.875 0.125,0.60938 0.46875,1.29688 h -2.53125 q -0.10937,-0.25 -0.25,-0.75 -0.0625,-0.23438 -0.0938,-0.3125 -0.65622,0.64062 -1.40622,0.96875 -0.73437,0.3125 -1.59375,0.3125 -1.48437,0 -2.34375,-0.8125 -0.85937,-0.8125 -0.85937,-2.04688 0,-0.82812 0.39062,-1.46875 0.39063,-0.64062 1.09375,-0.96875 0.70313,-0.34375 2.03125,-0.60937 1.79688,-0.32813 2.48435,-0.625 v -0.25 q 0,-0.75 -0.35938,-1.0625 -0.35934,-0.3125 -1.37497,-0.3125 -0.6875,0 -1.07812,0.28125 -0.375,0.26562 -0.60938,0.9375 z m 3.42185,2.07812 q -0.48435,0.15625 -1.56247,0.39063 -1.0625,0.21875 -1.39063,0.4375 -0.5,0.35937 -0.5,0.90625 0,0.53125 0.40625,0.9375 0.40625,0.39062 1.01563,0.39062 0.70312,0 1.32812,-0.46875 0.46872,-0.34375 0.60935,-0.84375 0.0938,-0.32812 0.0938,-1.25 z"
       fill-rule="nonzero"
       id="path81" />
    <path
       fill="#000000"
       fill-opacity="0"
       d="M 530.7848,283.90027 312.3596,411.74277"
       fill-rule="evenodd"
       id="path83" />
    <path
       stroke="#000000"
       stroke-width="1"
       stroke-linejoin="round"
       stroke-linecap="butt"
       d="M 530.7848,283.90027 312.3596,411.74277"
       fill-rule="evenodd"
       id="path85" />
    <path
       fill="#b7b7b7"
       d="m 97.93438,495.59055 h 173.41733 v 42.92917 H 97.93438 Z"
       fill-rule="evenodd"
       id="path87" />
    <path
       stroke="#000000"
       stroke-width="1"
       stroke-linejoin="round"
       stroke-linecap="butt"
       d="m 97.93438,495.59055 h 173.41733 v 42.92917 H 97.93438 Z"
       fill-rule="evenodd"
       id="path89" />
    <path
       fill="#000000"
       d="m 114.47205,523.9751 v -13.35934 h 9.15625 v 2.26559 h -6.45313 v 3.15625 h 5.5625 v 2.26562 h -5.5625 v 5.67188 z m 11.36473,-10.98438 v -2.37496 h 2.56251 v 2.37496 z m 0,10.98438 v -9.67188 h 2.56251 v 9.67188 z m 10.77706,-3.07813 2.54688,0.42188 q -0.48438,1.40625 -1.54688,2.14062 -1.0625,0.73438 -2.65625,0.73438 -2.51562,0 -3.73437,-1.65625 -0.95313,-1.3125 -0.95313,-3.32813 0,-2.40625 1.25,-3.76562 1.26563,-1.35938 3.1875,-1.35938 2.15625,0 3.40625,1.42188 1.25,1.42187 1.1875,4.375 h -6.40625 q 0.0312,1.14062 0.60938,1.78125 0.59375,0.625 1.48437,0.625 0.59375,0 1,-0.32813 0.42188,-0.32812 0.625,-1.0625 z m 0.15625,-2.59375 q -0.0312,-1.10937 -0.57812,-1.6875 -0.54688,-0.57812 -1.32813,-0.57812 -0.84375,0 -1.39062,0.60937 -0.54688,0.60938 -0.53125,1.65625 z m 4.62572,5.67188 v -13.35934 h 2.5625 v 13.35934 z m 14.0583,0 h -2.39062 v -1.42188 q -0.59375,0.82813 -1.40625,1.23438 -0.79688,0.40625 -1.60938,0.40625 -1.67187,0 -2.85937,-1.34375 -1.1875,-1.34375 -1.1875,-3.75 0,-2.45313 1.15625,-3.73438 1.15625,-1.28125 2.92187,-1.28125 1.625,0 2.8125,1.34375 v -4.81246 h 2.5625 z m -6.84375,-5.04688 q 0,1.54688 0.4375,2.23438 0.60938,1.01562 1.71875,1.01562 0.89063,0 1.5,-0.75 0.625,-0.76562 0.625,-2.25 0,-1.67187 -0.60937,-2.40625 -0.59375,-0.73437 -1.53125,-0.73437 -0.90625,0 -1.53125,0.73437 -0.60938,0.71875 -0.60938,2.15625 z m 21.42723,5.04688 h -2.9375 l -1.17187,-3.03125 h -5.32813 l -1.10937,3.03125 h -2.85938 l 5.20313,-13.35934 h 2.84375 z m -4.96875,-5.28125 -1.84375,-4.95313 -1.79687,4.95313 z m 8.83232,5.28125 h -2.5625 v -9.67188 h 2.375 v 1.375 q 0.60938,-0.98437 1.09375,-1.28125 0.48438,-0.3125 1.10938,-0.3125 0.875,0 1.6875,0.48438 l -0.79688,2.23437 q -0.64062,-0.42187 -1.20312,-0.42187 -0.53125,0 -0.90625,0.29687 -0.375,0.29688 -0.59375,1.07813 -0.20313,0.76562 -0.20313,3.23437 z m 7.26027,0 h -2.5625 v -9.67188 h 2.375 v 1.375 q 0.60938,-0.98437 1.09375,-1.28125 0.48438,-0.3125 1.10938,-0.3125 0.875,0 1.6875,0.48438 l -0.79688,2.23437 q -0.64062,-0.42187 -1.20312,-0.42187 -0.53125,0 -0.90625,0.29687 -0.375,0.29688 -0.59375,1.07813 -0.20313,0.76562 -0.20313,3.23437 z m 6.7134,-6.71875 -2.32813,-0.42188 q 0.40625,-1.40625 1.35938,-2.07812 0.95312,-0.67188 2.84375,-0.67188 1.70312,0 2.54687,0.40625 0.84375,0.40625 1.17188,1.03125 0.34375,0.625 0.34375,2.28125 l -0.0156,3 q 0,1.26563 0.10938,1.875 0.125,0.60938 0.46875,1.29688 h -2.53125 q -0.10938,-0.25 -0.25,-0.75 -0.0625,-0.23438 -0.0938,-0.3125 -0.65625,0.64062 -1.40625,0.96875 -0.73438,0.3125 -1.59375,0.3125 -1.48438,0 -2.34375,-0.8125 -0.85938,-0.8125 -0.85938,-2.04688 0,-0.82812 0.39063,-1.46875 0.39062,-0.64062 1.09375,-0.96875 0.70312,-0.34375 2.03125,-0.60937 1.79687,-0.32813 2.48437,-0.625 v -0.25 q 0,-0.75 -0.35937,-1.0625 -0.35938,-0.3125 -1.375,-0.3125 -0.6875,0 -1.07813,0.28125 -0.375,0.26562 -0.60937,0.9375 z m 3.42187,2.07812 q -0.48437,0.15625 -1.5625,0.39063 -1.0625,0.21875 -1.39062,0.4375 -0.5,0.35937 -0.5,0.90625 0,0.53125 0.40625,0.9375 0.40625,0.39062 1.01562,0.39062 0.70313,0 1.32813,-0.46875 0.46875,-0.34375 0.60937,-0.84375 0.0938,-0.32812 0.0938,-1.25 z m 3.82884,-5.03125 h 2.71875 l 2.32813,6.85938 2.25,-6.85938 h 2.65625 l -3.42188,9.3125 -0.60937,1.6875 q -0.32813,0.84375 -0.64063,1.28125 -0.3125,0.45313 -0.70312,0.71875 -0.39063,0.28125 -0.96875,0.4375 -0.57813,0.15625 -1.3125,0.15625 -0.73438,0 -1.45313,-0.15625 l -0.21875,-2 q 0.59375,0.125 1.07813,0.125 0.89062,0 1.3125,-0.53125 0.4375,-0.51562 0.67187,-1.32812 z m 11.64135,9.67188 v -13.35934 h 2.625 l 5.45312,8.92184 v -8.92184 h 2.51563 v 13.35934 h -2.70313 l -5.39062,-8.70313 v 8.70313 z m 15.33232,-6.71875 -2.32813,-0.42188 q 0.40625,-1.40625 1.35938,-2.07812 0.95312,-0.67188 2.84375,-0.67188 1.70312,0 2.54687,0.40625 0.84375,0.40625 1.17188,1.03125 0.34375,0.625 0.34375,2.28125 l -0.0156,3 q 0,1.26563 0.10938,1.875 0.125,0.60938 0.46875,1.29688 h -2.53125 q -0.10938,-0.25 -0.25,-0.75 -0.0625,-0.23438 -0.0938,-0.3125 -0.65625,0.64062 -1.40625,0.96875 -0.73438,0.3125 -1.59375,0.3125 -1.48438,0 -2.34375,-0.8125 -0.85938,-0.8125 -0.85938,-2.04688 0,-0.82812 0.39063,-1.46875 0.39062,-0.64062 1.09375,-0.96875 0.70312,-0.34375 2.03125,-0.60937 1.79687,-0.32813 2.48437,-0.625 v -0.25 q 0,-0.75 -0.35937,-1.0625 -0.35938,-0.3125 -1.375,-0.3125 -0.6875,0 -1.07813,0.28125 -0.375,0.26562 -0.60937,0.9375 z m 3.42187,2.07812 q -0.48437,0.15625 -1.5625,0.39063 -1.0625,0.21875 -1.39062,0.4375 -0.5,0.35937 -0.5,0.90625 0,0.53125 0.40625,0.9375 0.40625,0.39062 1.01562,0.39062 0.70313,0 1.32813,-0.46875 0.46875,-0.34375 0.60937,-0.84375 0.0938,-0.32812 0.0938,-1.25 z m 4.84447,-5.03125 h 2.35937 v 1.3125 q 1.26563,-1.53125 3.01563,-1.53125 0.9375,0 1.60937,0.39063 0.6875,0.375 1.125,1.14062 0.64063,-0.76562 1.375,-1.14062 0.75,-0.39063 1.57813,-0.39063 1.0625,0 1.79687,0.4375 0.75,0.42188 1.10938,1.26563 0.26562,0.625 0.26562,2 v 6.1875 h -2.5625 v -5.53125 q 0,-1.4375 -0.26562,-1.85938 -0.34375,-0.54687 -1.09375,-0.54687 -0.53125,0 -1.01563,0.32812 -0.46875,0.32813 -0.67187,0.96875 -0.20313,0.625 -0.20313,2 v 4.64063 h -2.5625 v -5.29688 q 0,-1.42187 -0.14062,-1.82812 -0.14063,-0.40625 -0.42188,-0.60938 -0.28125,-0.20312 -0.78125,-0.20312 -0.59375,0 -1.0625,0.32812 -0.46875,0.3125 -0.6875,0.92188 -0.20312,0.59375 -0.20312,1.98437 v 4.70313 h -2.5625 z m 22.38527,6.59375 2.54687,0.42188 q -0.48437,1.40625 -1.54687,2.14062 -1.0625,0.73438 -2.65625,0.73438 -2.51563,0 -3.73438,-1.65625 -0.95312,-1.3125 -0.95312,-3.32813 0,-2.40625 1.25,-3.76562 1.26562,-1.35938 3.1875,-1.35938 2.15625,0 3.40625,1.42188 1.25,1.42187 1.1875,4.375 h -6.40625 q 0.0312,1.14062 0.60937,1.78125 0.59375,0.625 1.48438,0.625 0.59375,0 1,-0.32813 0.42187,-0.32812 0.625,-1.0625 z m 0.15625,-2.59375 q -0.0312,-1.10937 -0.57813,-1.6875 -0.54687,-0.57812 -1.32812,-0.57812 -0.84375,0 -1.39063,0.60937 -0.54687,0.60938 -0.53125,1.65625 z"
       fill-rule="nonzero"
       id="path91" />
    <path
       fill="#000000"
       fill-opacity="0"
       d="m 274.35696,488.15747 h 62.39371 v 57.79529 h -62.39371 z"
       fill-rule="evenodd"
       id="path93" />
    <path
       fill="#000000"
       d="m 286.23196,535.5575 v -5.48437 h 5.48438 v 5.48437 z m 11.11328,0 v -5.48437 h 5.48438 v 5.48437 z m 11.11328,0 v -5.48437 h 5.48438 v 5.48437 z"
       fill-rule="nonzero"
       id="path95" />
    <path
       fill="#000000"
       fill-opacity="0"
       d="m 312.3596,459.7966 -6.80316,28.34644"
       fill-rule="evenodd"
       id="path97" />
    <path
       stroke="#000000"
       stroke-width="1"
       stroke-linejoin="round"
       stroke-linecap="butt"
       d="m 312.3596,459.7966 -6.80316,28.34644"
       fill-rule="evenodd"
       id="path99" />
    <path
       fill="#000000"
       fill-opacity="0"
       d="M 312.3596,459.7966 184.64306,495.57611"
       fill-rule="evenodd"
       id="path101" />
    <path
       stroke="#000000"
       stroke-width="1"
       stroke-linejoin="round"
       stroke-linecap="butt"
       d="M 312.3596,459.7966 184.64306,495.57611"
       fill-rule="evenodd"
       id="path103" />
  </g>
</svg>
